<svg enable-background="new 0 0 284.929 284.929" height="12" viewBox="0 0 284.929 284.929" width="12" xmlns="http://www.w3.org/2000/svg"><path d="m282.082 195.285-133.054-133.045c-1.901-1.903-4.088-2.856-6.562-2.856s-4.665.953-6.567 2.856l-133.043 133.045c-1.906 1.906-2.856 4.093-2.856 6.568 0 2.474.953 4.664 2.856 6.566l14.272 14.271c1.903 1.903 4.093 2.854 6.567 2.854s4.664-.951 6.567-2.854l112.204-112.202 112.208 112.209c1.902 1.903 4.093 2.848 6.563 2.848 2.478 0 4.668-.951 6.57-2.848l14.274-14.277c1.902-1.902 2.847-4.093 2.847-6.566.001-2.476-.944-4.666-2.846-6.569z" fill="#d80027"/></svg>
