<?xml version="1.0" encoding="utf-8"?>
<!-- Generator: Adobe Illustrator 19.2.0, SVG Export Plug-In . SVG Version: 6.00 Build 0)  -->
<svg version="1.1" id="Capa_1" xmlns="http://www.w3.org/2000/svg" xmlns:xlink="http://www.w3.org/1999/xlink" x="0px" y="0px"
	 viewBox="0 0 512 512" style="enable-background:new 0 0 512 512;" xml:space="preserve">
<style type="text/css">
	.st0{fill:#FFFFFF;}
</style>
<g>
	<path class="st0" d="M82.4,389H50.5c-4.1,0-5.3-2.4-4.1-7L99,182.3c1.5-4.6,4.9-7,10-7h44.3c5.6,0,8.8,2.4,10,7L215.9,382
		c1.4,4.6,0,7-4.1,7h-31.9c-2.4,0-4.1-0.5-4.9-1.5c-0.8-1-1.5-2.9-2-5.4l-9.3-36.6H98.8L89.5,382c-0.5,2.7-1.2,4.4-2.2,5.4
		C86.3,388.5,84.6,389,82.4,389z M130.6,215.5l-23.9,96h49.2l-23.9-96H130.6z"/>
	<path class="st0" d="M280.5,389h-28.3c-4.6,0-7-2.4-7-7V182.3c0-4.6,2.4-7,7-7h81.1c17.3,0,30.7,4.7,40.2,14.1
		c9.5,9.5,14.2,22.7,14.2,40v31.9c0,17.3-4.7,30.7-14.2,40c-9.5,9.5-22.9,14.1-40.2,14.1h-41.9c-2.7,0-4.1,1.2-4.1,3.7v62.8
		C287.4,386.6,285.2,389,280.5,389z M291.2,278.6h35.3c7.1,0,12-1.5,14.9-4.4c2.9-3.1,4.2-8,4.2-14.8v-28c0-7.1-1.5-12.2-4.2-15.1
		c-2.9-3.1-7.8-4.4-14.9-4.4h-35.3c-2.4,0-3.7,1.2-3.7,3.7v59.5C287.4,277.4,288.8,278.6,291.2,278.6z"/>
	<path class="st0" d="M465.3,182.3V382c0,4.6-2.4,7-7,7h-28.3c-4.6,0-7-2.4-7-7V182.3c0-4.6,2.4-7,7-7h28.3
		C463,175.3,465.3,177.7,465.3,182.3z"/>
</g>
</svg>
