<?xml version="1.0" encoding="utf-8"?>
<!-- Generator: Adobe Illustrator 19.2.0, SVG Export Plug-In . SVG Version: 6.00 Build 0)  -->
<svg version="1.1" id="Capa_1" xmlns="http://www.w3.org/2000/svg" xmlns:xlink="http://www.w3.org/1999/xlink" x="0px" y="0px"
	 viewBox="0 0 512 512" style="enable-background:new 0 0 512 512;" xml:space="preserve">
<style type="text/css">
	.st0{fill:#FFFFFF;}
</style>
<g>
	<g>
		<polygon class="st0" points="346,8.8 346,120 457.2,120 		"/>
	</g>
</g>
<g>
	<g>
		<path class="st0" d="M316,150V0H46v512h420V150H316z M114,120h142v30H114V120z M405.6,449H112v-30h293.6V449z M405.6,397.1H112
			V226h293.6V397.1z M406.6,203H113v-30h293.6V203z"/>
	</g>
</g>
<g>
	<path class="st0" d="M153.2,375h-18.8c-2.4,0-3.1-1.4-2.4-4.1l31-117.8c0.9-2.7,2.9-4.1,5.9-4.1H195c3.3,0,5.2,1.4,5.9,4.1
		l31,117.8c0.8,2.7,0,4.1-2.4,4.1h-18.8c-1.4,0-2.4-0.3-2.9-0.9c-0.5-0.6-0.9-1.7-1.2-3.2l-5.5-21.6h-38.2l-5.5,21.6
		c-0.3,1.6-0.7,2.6-1.3,3.2C155.5,374.7,154.5,375,153.2,375z M181.6,272.7l-14.1,56.6h29l-14.1-56.6H181.6z"/>
	<path class="st0" d="M270,375h-16.7c-2.7,0-4.1-1.4-4.1-4.1V253.1c0-2.7,1.4-4.1,4.1-4.1h47.8c10.2,0,18.1,2.8,23.7,8.3
		c5.6,5.6,8.4,13.4,8.4,23.6v18.8c0,10.2-2.8,18.1-8.4,23.6c-5.6,5.6-13.5,8.3-23.7,8.3h-24.7c-1.6,0-2.4,0.7-2.4,2.2v37
		C274.1,373.6,272.8,375,270,375z M276.3,309.9h20.8c4.2,0,7.1-0.9,8.8-2.6c1.7-1.8,2.5-4.7,2.5-8.7v-16.5c0-4.2-0.9-7.2-2.5-8.9
		c-1.7-1.8-4.6-2.6-8.8-2.6h-20.8c-1.4,0-2.2,0.7-2.2,2.2v35.1C274.1,309.2,274.9,309.9,276.3,309.9z"/>
	<path class="st0" d="M379,253.1v117.8c0,2.7-1.4,4.1-4.1,4.1h-16.7c-2.7,0-4.1-1.4-4.1-4.1V253.1c0-2.7,1.4-4.1,4.1-4.1h16.7
		C377.6,249,379,250.4,379,253.1z"/>
</g>
</svg>
