<?xml version="1.0" encoding="UTF-8"?>
<svg enable-background="new 0 0 40 40" version="1.1" viewBox="0 0 40 40" xml:space="preserve" xmlns="http://www.w3.org/2000/svg" width="40" height="40" fill="#f5f5f5">
<path d="m20 30c-7.4 0-13.3-3-13.3-6.7v5c0 3.7 6 6.7 13.3 6.7s13.3-3 13.3-6.7v-5c0 3.7-5.9 6.7-13.3 6.7zm-5.6-8v-1c-4.5-1.1-7.7-3.4-7.7-6v5c0 3.7 6 6.7 13.3 6.7 5.9 0 11-1.9 12.7-4.6h-18.3zm-7.7-10.3c0 2.7 3.2 5 7.7 6v-12.1c-4.6 1.1-7.7 3.4-7.7 6.1zm23.7 6.1h-0.6v-3.1c0-2-1.1-3.7-2.8-4.6 1.7-0.9 2.8-2.6 2.8-4.6v-3h0.6c0.3 0 0.6-0.3 0.6-0.6s-0.3-0.6-0.6-0.6h-11.5c-0.3 0-0.6 0.3-0.6 0.6s0.3 0.6 0.6 0.6h0.6v3.1c0 2 1.1 3.7 2.8 4.6-1.7 0.9-2.8 2.6-2.8 4.6v3.1h-0.6c-0.3 0-0.6 0.3-0.6 0.6s0.3 0.6 0.6 0.6h11.5c0.3 0 0.6-0.3 0.6-0.6-0.1-0.4-0.3-0.7-0.6-0.7zm-9.8-11.9v-3.4h8.1v3.4h-8.1zm8 11.3c-3.2-2.6-3.1-2.6-3.5-2.7v-0.6c0-0.3-0.3-0.6-0.6-0.6s-0.6 0.3-0.6 0.6v0.6c-0.4 0.1-0.3 0.1-3.5 2.7v-2.4c0-2 1.5-3.7 3.5-4v0.7c0 0.3 0.3 0.6 0.6 0.6s0.6-0.3 0.6-0.6v-0.7c1.9 0.3 3.5 2 3.5 4v2.4z"/>
</svg>
