<?xml version="1.0" encoding="UTF-8"?>
<svg enable-background="new 0 0 40 40" version="1.1" viewBox="0 0 40 40" xml:space="preserve" xmlns="http://www.w3.org/2000/svg" width="40" height="40" fill="#f5f5f5">
<path d="m20 30c-7.4 0-13.3-3-13.3-6.7v5c0 3.7 6 6.7 13.3 6.7s13.3-3 13.3-6.7v-5c0 3.7-5.9 6.7-13.3 6.7zm-5.6-8v-1c-4.5-1.1-7.7-3.4-7.7-6v5c0 3.7 6 6.7 13.3 6.7 5.9 0 11-1.9 12.7-4.6h-18.3zm-7.7-10.3c0 2.7 3.2 5 7.7 6v-12.1c-4.6 1.1-7.7 3.4-7.7 6.1zm27.9-6.7c-0.3-0.3-0.6-0.4-1.1-0.4h-14.8c-0.4 0-0.8 0.1-1.1 0.4s-0.4 0.6-0.4 1.1v10.1c0 0.4 0.1 0.8 0.4 1.1s0.6 0.4 1.1 0.4h5.1c0 0.2 0 0.5-0.1 0.7s-0.2 0.5-0.3 0.7-0.1 0.3-0.1 0.4c0 0.2 0.1 0.3 0.2 0.4s0.3 0.2 0.4 0.2h4.8c0.2 0 0.3-0.1 0.4-0.2s0.2-0.3 0.2-0.4 0-0.2-0.1-0.4-0.2-0.4-0.3-0.7-0.1-0.5-0.1-0.7h5.1c0.4 0 0.8-0.1 1.1-0.4s0.4-0.6 0.4-1.1v-10.2c-0.3-0.4-0.5-0.8-0.8-1zm-0.7 8.7c0 0.1 0 0.2-0.1 0.2-0.1 0.1-0.1 0.1-0.2 0.1h-14.9c-0.1 0-0.2 0-0.2-0.1-0.1-0.1-0.1-0.1-0.1-0.2v-7.7c0-0.1 0-0.2 0.1-0.2 0.1-0.1 0.1-0.1 0.2-0.1h14.9c0.1 0 0.2 0 0.2 0.1 0.1 0.1 0.1 0.1 0.1 0.2v7.7z"/>
</svg>
