<?xml version="1.0" encoding="utf-8"?>
<!-- Generator: Adobe Illustrator 19.2.0, SVG Export Plug-In . SVG Version: 6.00 Build 0)  -->
<svg version="1.1" id="Layer_1" xmlns="http://www.w3.org/2000/svg" xmlns:xlink="http://www.w3.org/1999/xlink" x="0px" y="0px"
	 viewBox="0 0 500 500" style="enable-background:new 0 0 500 500;" xml:space="preserve">
<style type="text/css">
	.st0{fill:#CECECE;stroke:#231F20;stroke-width:0.5;stroke-miterlimit:10;}
	.st1{fill:#969696;stroke:#231F20;stroke-width:0.5;stroke-miterlimit:10;}
	.st2{fill:#D1D1D1;stroke:#231F20;stroke-width:0.5;stroke-miterlimit:10;}
	.st3{fill:#930C0C;stroke:#231F20;stroke-width:0.5;stroke-miterlimit:10;}
	.st4{fill:#CE3838;stroke:#231F20;stroke-width:0.5;stroke-miterlimit:10;}
	.st5{fill:#F2F2F2;stroke:#231F20;stroke-width:0.5;stroke-miterlimit:10;}
	.st6{fill:#A3A3A3;stroke:#231F20;stroke-width:0.5;stroke-miterlimit:10;}
	.st7{fill:#B21F1F;stroke:#231F20;stroke-width:0.5;stroke-miterlimit:10;}
	.st8{fill:#750B0B;stroke:#231F20;stroke-width:0.5;stroke-miterlimit:10;}
	.st9{fill:#6D0B0B;stroke:#231F20;stroke-width:0.5;stroke-miterlimit:10;}
</style>
<polygon class="st0" points="82.4,190.2 186.4,129.6 186.1,60.2 21.6,156 "/>
<polyline class="st1" points="187.6,441 187.4,370.3 291.3,309.7 290.9,189.3 351.4,154.7 352.1,345.1 187.6,441 "/>
<polygon class="st2" points="187.4,370.3 82.9,310.5 82.4,190.2 21.6,156 22.4,346.4 187.6,441 "/>
<polygon class="st3" points="187.5,179.4 291.1,119.9 352,154.7 187.5,249.9 "/>
<polygon class="st4" points="290.7,190.1 412.1,119.8 473.1,154.4 291,260.6 "/>
<polygon class="st3" points="412.2,381.3 412.3,189.9 472.9,154.5 473.1,345.9 "/>
<polygon class="st2" points="186.1,60.2 82.4,190.2 186.4,129.6 "/>
<polygon class="st5" points="82.4,190.2 52.6,273 21.6,156 "/>
<polygon class="st1" points="82.9,310.5 52.6,273 22.4,346.4 "/>
<polygon class="st5" points="82.9,310.5 102.9,349.2 22.4,346.4 "/>
<polygon class="st1" points="119.8,143.4 186.4,129.6 82.4,190.2 "/>
<polygon class="st6" points="82.4,190.2 52.6,273 82.9,310.5 "/>
<polygon class="st5" points="291.3,309.7 269.8,370.3 352.1,345.1 "/>
<polygon class="st2" points="82.9,310.5 102.9,349.2 187.4,370.3 "/>
<polygon class="st5" points="187.4,370.3 269.8,370.3 291.3,309.7 "/>
<polygon class="st2" points="291.3,309.7 317.8,244.9 352.1,345.1 "/>
<polyline class="st5" points="317.8,244.9 291.3,309.7 291,260.6 "/>
<polygon class="st7" points="187.5,179.4 255.5,181.6 291.1,119.9 "/>
<polygon class="st8" points="187.5,249.9 255.5,181.6 352,154.7 "/>
<polygon class="st4" points="255.5,181.6 352,154.7 291.1,119.9 "/>
<polygon class="st3" points="290.7,190.1 345,197.5 291,260.6 "/>
<polygon class="st7" points="412.1,119.8 345,197.5 472.9,154.5 "/>
<polygon class="st8" points="291,260.6 345,197.5 472.9,154.5 "/>
<polygon class="st8" points="472.9,154.5 437.1,288.3 473.1,345.9 "/>
<polygon class="st9" points="412.2,381.3 437.1,288.3 473.1,345.9 "/>
<polygon class="st4" points="412.3,189.9 437.1,288.3 472.9,154.5 "/>
<polygon class="st5" points="186.3,60.2 119.9,143.4 21.8,156 "/>
<polygon class="st6" points="187.4,370.3 102.9,349.2 187.6,441 "/>
<polygon class="st2" points="187.4,370.3 269.8,370.3 187.6,441 "/>
</svg>
