<?xml version="1.0" encoding="UTF-8"?>
<svg viewBox="0 -27 512 512" xmlns="http://www.w3.org/2000/svg">
    <path d="m489.13 61.57h-293.75v371.18h293.75c12.629 0 22.867-10.238 22.867-22.867v-325.44c0-12.629-10.238-22.867-22.867-22.867z" fill="#576574"/>
    <path d="m195.38 61.57h35.027v371.18h-35.027z" fill="#3e4b5a"/>
    <path d="m467.89 115.49h-226.34c-4.5859 0-8.3086 3.7227-8.3086 8.3086v75.051c0 4.5898 3.7227 8.3086 8.3086 8.3086h226.34c4.5898 0 8.3086-3.7188 8.3086-8.3086v-75.051c0-4.5859-3.7188-8.3086-8.3086-8.3086z" fill="#feca57"/>
    <path d="m264.15 198.85v-75.051c0-4.5859 3.7188-8.3086 8.3086-8.3086h-30.906c-4.5898 0-8.3125 3.7227-8.3125 8.3086v75.051c0 4.5898 3.7227 8.3086 8.3125 8.3086h30.906c-4.5898 0-8.3086-3.7188-8.3086-8.3086z" fill="#f4b537"/>
    <path d="m468.79 244.08h-17.695c-4.0781 0-7.4102 3.332-7.4102 7.4102v17.695c0 4.0742 3.3359 7.4102 7.4102 7.4102h17.695c4.0742 0 7.4062-3.3359 7.4062-7.4102v-17.699c0-4.0742-3.332-7.4062-7.4062-7.4062z" fill="#54a0ff"/>
    <path d="m468.03 269.19v-17.695c0-2.8828 1.668-5.3867 4.0859-6.6094-1-0.50781-2.1289-0.80078-3.3203-0.80078h-17.695c-4.0781 0-7.4102 3.332-7.4102 7.4062v17.699c0 4.0742 3.3359 7.4062 7.4102 7.4062h17.695c1.1953 0 2.3203-0.29297 3.3203-0.79688-2.418-1.2266-4.0859-3.7266-4.0859-6.6094z" fill="#338def"/>
    <path d="m175.2 36.215h-150.89c-13.371 0-24.309 10.938-24.309 24.309v373.27c0 13.371 10.938 24.312 24.309 24.312h150.89c13.371 0 24.309-10.941 24.309-24.312v-373.27c0-13.371-10.938-24.309-24.309-24.309z" fill="#576574"/>
    <path d="m30.906 433.79v-373.27c0-13.371 10.941-24.309 24.312-24.309h-30.91c-13.371 0-24.309 10.938-24.309 24.309v373.27c0 13.371 10.938 24.312 24.309 24.312h30.91c-13.371 0-24.312-10.941-24.312-24.312z" fill="#3e4b5a"/>
    <path d="m117.73 0h-35.957c-21.148 0-38.453 17.305-38.453 38.453v61.535c0 7.082 5.793 12.871 12.875 12.871h10.754v-39.602c0-19.176 13.629-32.801 32.805-32.801 19.172 0 32.801 13.625 32.801 32.801v39.602h10.754c7.082 0 12.875-5.7891 12.875-12.871v-61.535c0-21.148-17.305-38.453-38.453-38.453z" fill="#e4eaf8"/>
    <path d="m74.23 38.453c0-21.148 17.305-38.453 38.453-38.453h-30.91c-21.148 0-38.453 17.305-38.453 38.453v61.535c0 7.082 5.793 12.871 12.875 12.871h10.754v-39.602c0-8.4648 2.6602-15.848 7.2812-21.457z" fill="#c7d2e5"/>
    <path d="m143.31 302.8h-10.758v39.602c0 19.176-13.629 32.801-32.801 32.801-19.176 0-32.801-13.625-32.801-32.801v-39.602h-10.758c-7.082 0-12.875 5.793-12.875 12.871v61.535c0 21.148 17.305 38.453 38.453 38.453h35.957c21.148 0 38.453-17.305 38.453-38.453v-61.535c0-7.0781-5.793-12.871-12.871-12.871z" fill="#e4eaf8"/>
    <path d="m74.23 377.2v-13.348c-4.6172-5.6094-7.2773-12.992-7.2773-21.457v-39.602h-10.758c-7.082 0-12.875 5.7891-12.875 12.871v61.535c0 21.148 17.305 38.453 38.453 38.453h30.91c-21.152 0-38.453-17.305-38.453-38.453z" fill="#c7d2e5"/>
    <path d="m102.11 377.26h-4.7227c-17.875 0-32.5-14.625-32.5-32.5v-273.87c0-17.875 14.625-32.5 32.5-32.5h4.7227c17.875 0 32.5 14.625 32.5 32.5v273.87c0 17.875-14.625 32.5-32.5 32.5z" fill="#c7d2e5"/>
    <path d="m95.801 343.78v-271.9c0-13.395 7.9727-25.012 19.406-30.355-4.2852-2-9.0547-3.1289-14.074-3.1289h-2.7578c-18.414 0-33.484 15.07-33.484 33.484v271.9c0 18.414 15.07 33.484 33.484 33.484h2.7578c5.0195 0 9.7891-1.1289 14.074-3.1328-11.434-5.3398-19.406-16.957-19.406-30.352z" fill="#bac7db"/>
    <path d="m468.79 296.09h-17.695c-4.0781 0-7.4102 3.332-7.4102 7.4102v17.695c0 4.0742 3.3359 7.4062 7.4102 7.4062h17.695c4.0742 0 7.4062-3.332 7.4062-7.4062v-17.695c0-4.0742-3.332-7.4102-7.4062-7.4102z" fill="#54a0ff"/>
    <path d="m468.03 321.2v-17.695c0-2.8828 1.668-5.3867 4.0859-6.6094-1-0.50781-2.1289-0.80078-3.3203-0.80078h-17.695c-4.0781 0-7.4102 3.332-7.4102 7.4102v17.695c0 4.0742 3.3359 7.4062 7.4102 7.4062h17.695c1.1953 0 2.3203-0.29297 3.3203-0.79688-2.418-1.2227-4.0859-3.7305-4.0859-6.6094z" fill="#338def"/>
    <path d="m468.79 348.11h-17.695c-4.0781 0-7.4102 3.332-7.4102 7.4102v17.695c0 4.0742 3.3359 7.4062 7.4102 7.4062h17.695c4.0742 0 7.4062-3.332 7.4062-7.4062v-17.695c0-4.0742-3.332-7.4102-7.4062-7.4102z" fill="#54a0ff"/>
    <path d="m468.03 373.21v-17.695c0-2.8828 1.668-5.3867 4.0859-6.6094-1-0.50781-2.1289-0.80078-3.3203-0.80078h-17.695c-4.0781 0-7.4102 3.332-7.4102 7.4102v17.695c0 4.0742 3.3359 7.4062 7.4102 7.4062h17.695c1.1953 0 2.3203-0.29297 3.3203-0.79688-2.418-1.2227-4.0859-3.7266-4.0859-6.6094z" fill="#338def"/>
    <path d="m416.18 244.08h-17.699c-4.0742 0-7.4062 3.332-7.4062 7.4102v17.695c0 4.0742 3.332 7.4102 7.4062 7.4102h17.699c4.0742 0 7.4062-3.3359 7.4062-7.4102v-17.699c0-4.0742-3.332-7.4062-7.4062-7.4062z" fill="#54a0ff"/>
    <path d="m415.41 269.19v-17.695c0-2.8828 1.6719-5.3867 4.0898-6.6094-1-0.50781-2.1289-0.80078-3.3203-0.80078h-17.699c-4.0742 0-7.4062 3.332-7.4062 7.4062v17.699c0 4.0742 3.332 7.4062 7.4062 7.4062h17.699c1.1914 0 2.3203-0.29297 3.3203-0.79688-2.418-1.2266-4.0898-3.7266-4.0898-6.6094z" fill="#338def"/>
    <path d="m416.18 296.09h-17.699c-4.0742 0-7.4062 3.332-7.4062 7.4102v17.695c0 4.0742 3.332 7.4062 7.4062 7.4062h17.699c4.0742 0 7.4062-3.332 7.4062-7.4062v-17.695c0-4.0742-3.332-7.4102-7.4062-7.4102z" fill="#54a0ff"/>
    <path d="m415.41 321.2v-17.695c0-2.8828 1.6719-5.3867 4.0898-6.6094-1-0.50781-2.1289-0.80078-3.3203-0.80078h-17.699c-4.0742 0-7.4062 3.332-7.4062 7.4102v17.695c0 4.0742 3.332 7.4062 7.4062 7.4062h17.699c1.1914 0 2.3203-0.29297 3.3203-0.79688-2.418-1.2227-4.0898-3.7305-4.0898-6.6094z" fill="#338def"/>
    <path d="m416.18 348.11h-17.699c-4.0742 0-7.4062 3.332-7.4062 7.4102v17.695c0 4.0742 3.332 7.4062 7.4062 7.4062h17.699c4.0742 0 7.4062-3.332 7.4062-7.4062v-17.695c0-4.0742-3.332-7.4102-7.4062-7.4102z" fill="#54a0ff"/>
    <path d="m415.41 373.21v-17.695c0-2.8828 1.6719-5.3867 4.0898-6.6094-1-0.50781-2.1289-0.80078-3.3203-0.80078h-17.699c-4.0742 0-7.4062 3.332-7.4062 7.4102v17.695c0 4.0742 3.332 7.4062 7.4062 7.4062h17.699c1.1914 0 2.3203-0.29297 3.3203-0.79688-2.418-1.2227-4.0898-3.7266-4.0898-6.6094z" fill="#338def"/>
    <path d="m363.57 244.08h-17.695c-4.0742 0-7.4102 3.332-7.4102 7.4102v17.695c0 4.0742 3.3359 7.4102 7.4102 7.4102h17.695c4.0742 0 7.4102-3.3359 7.4102-7.4102v-17.699c0-4.0742-3.3359-7.4062-7.4102-7.4062z" fill="#54a0ff"/>
    <path d="m362.8 269.19v-17.695c0-2.8828 1.6719-5.3867 4.0859-6.6094-1-0.50781-2.125-0.80078-3.3203-0.80078h-17.695c-4.0742 0-7.4102 3.332-7.4102 7.4062v17.699c0 4.0742 3.3359 7.4062 7.4102 7.4062h17.695c1.1953 0 2.3203-0.29297 3.3203-0.79688-2.4141-1.2266-4.0859-3.7266-4.0859-6.6094z" fill="#338def"/>
    <path d="m363.57 296.09h-17.695c-4.0742 0-7.4102 3.332-7.4102 7.4102v17.695c0 4.0742 3.3359 7.4062 7.4102 7.4062h17.695c4.0742 0 7.4102-3.332 7.4102-7.4062v-17.695c0-4.0742-3.3359-7.4102-7.4102-7.4102z" fill="#54a0ff"/>
    <path d="m362.8 321.2v-17.695c0-2.8828 1.6719-5.3867 4.0859-6.6094-1-0.50781-2.125-0.80078-3.3203-0.80078h-17.695c-4.0742 0-7.4102 3.332-7.4102 7.4102v17.695c0 4.0742 3.3359 7.4062 7.4102 7.4062h17.695c1.1953 0 2.3203-0.29297 3.3203-0.79688-2.4141-1.2227-4.0859-3.7305-4.0859-6.6094z" fill="#338def"/>
    <path d="m363.57 348.11h-17.695c-4.0742 0-7.4102 3.332-7.4102 7.4102v17.695c0 4.0742 3.3359 7.4062 7.4102 7.4062h17.695c4.0742 0 7.4102-3.332 7.4102-7.4062v-17.695c0-4.0742-3.3359-7.4102-7.4102-7.4102z" fill="#54a0ff"/>
    <path d="m362.8 373.21v-17.695c0-2.8828 1.6719-5.3867 4.0859-6.6094-1-0.50781-2.125-0.80078-3.3203-0.80078h-17.695c-4.0742 0-7.4102 3.332-7.4102 7.4102v17.695c0 4.0742 3.3359 7.4062 7.4102 7.4062h17.695c1.1953 0 2.3203-0.29297 3.3203-0.79688-2.4141-1.2227-4.0859-3.7266-4.0859-6.6094z" fill="#338def"/>
    <path d="m310.96 244.08h-17.699c-4.0742 0-7.4062 3.332-7.4062 7.4102v17.695c0 4.0742 3.332 7.4102 7.4062 7.4102h17.699c4.0742 0 7.4062-3.3359 7.4062-7.4102v-17.699c0-4.0742-3.332-7.4062-7.4062-7.4062z" fill="#54a0ff"/>
    <path d="m310.2 269.19v-17.695c0-2.8828 1.668-5.3867 4.0859-6.6094-1-0.50781-2.1289-0.80078-3.3203-0.80078h-17.699c-4.0742 0-7.4062 3.332-7.4062 7.4062v17.699c0 4.0742 3.332 7.4062 7.4062 7.4062h17.699c1.1914 0 2.3203-0.29297 3.3203-0.79688-2.418-1.2266-4.0859-3.7266-4.0859-6.6094z" fill="#338def"/>
    <path d="m310.96 296.09h-17.699c-4.0742 0-7.4062 3.332-7.4062 7.4102v17.695c0 4.0742 3.332 7.4062 7.4062 7.4062h17.699c4.0742 0 7.4062-3.332 7.4062-7.4062v-17.695c0-4.0742-3.332-7.4102-7.4062-7.4102z" fill="#54a0ff"/>
    <path d="m310.2 321.2v-17.695c0-2.8828 1.668-5.3867 4.0859-6.6094-1-0.50781-2.1289-0.80078-3.3203-0.80078h-17.699c-4.0742 0-7.4062 3.332-7.4062 7.4102v17.695c0 4.0742 3.332 7.4062 7.4062 7.4062h17.699c1.1914 0 2.3203-0.29297 3.3203-0.79688-2.418-1.2227-4.0859-3.7305-4.0859-6.6094z" fill="#338def"/>
    <path d="m310.96 348.11h-17.699c-4.0742 0-7.4062 3.332-7.4062 7.4102v17.695c0 4.0742 3.332 7.4062 7.4062 7.4062h17.699c4.0742 0 7.4062-3.332 7.4062-7.4062v-17.695c0-4.0742-3.332-7.4102-7.4062-7.4102z" fill="#54a0ff"/>
    <path d="m310.2 373.21v-17.695c0-2.8828 1.668-5.3867 4.0859-6.6094-1-0.50781-2.1289-0.80078-3.3203-0.80078h-17.699c-4.0742 0-7.4062 3.332-7.4062 7.4102v17.695c0 4.0742 3.332 7.4062 7.4062 7.4062h17.699c1.1914 0 2.3203-0.29297 3.3203-0.79688-2.418-1.2227-4.0859-3.7266-4.0859-6.6094z" fill="#338def"/>
    <path d="m258.35 244.08h-17.695c-4.0742 0-7.4102 3.332-7.4102 7.4102v17.695c0 4.0742 3.3359 7.4102 7.4102 7.4102h17.695c4.0742 0 7.4102-3.3359 7.4102-7.4102v-17.699c0-4.0742-3.3359-7.4062-7.4102-7.4062z" fill="#54a0ff"/>
    <path d="m257.58 269.19v-17.695c0-2.8828 1.6719-5.3867 4.0898-6.6094-1.0039-0.50781-2.1289-0.80078-3.3242-0.80078h-17.695c-4.0742 0-7.4102 3.332-7.4102 7.4062v17.699c0 4.0742 3.3359 7.4062 7.4102 7.4062h17.695c1.1953 0 2.3203-0.29297 3.3242-0.79688-2.418-1.2266-4.0898-3.7266-4.0898-6.6094z" fill="#338def"/>
    <path d="m258.35 296.09h-17.695c-4.0742 0-7.4102 3.332-7.4102 7.4102v17.695c0 4.0742 3.3359 7.4062 7.4102 7.4062h17.695c4.0742 0 7.4102-3.332 7.4102-7.4062v-17.695c0-4.0742-3.3359-7.4102-7.4102-7.4102z" fill="#54a0ff"/>
    <path d="m257.58 321.2v-17.695c0-2.8828 1.6719-5.3867 4.0898-6.6094-1.0039-0.50781-2.1289-0.80078-3.3242-0.80078h-17.695c-4.0742 0-7.4102 3.332-7.4102 7.4102v17.695c0 4.0742 3.3359 7.4062 7.4102 7.4062h17.695c1.1953 0 2.3203-0.29297 3.3242-0.79688-2.418-1.2227-4.0898-3.7305-4.0898-6.6094z" fill="#338def"/>
    <path d="m258.35 348.11h-17.695c-4.0742 0-7.4102 3.332-7.4102 7.4102v17.695c0 4.0742 3.3359 7.4062 7.4102 7.4062h17.695c4.0742 0 7.4102-3.332 7.4102-7.4062v-17.695c0-4.0742-3.3359-7.4102-7.4102-7.4102z" fill="#54a0ff"/>
    <path d="m257.58 373.21v-17.695c0-2.8828 1.6719-5.3867 4.0898-6.6094-1.0039-0.50781-2.1289-0.80078-3.3242-0.80078h-17.695c-4.0742 0-7.4102 3.332-7.4102 7.4102v17.695c0 4.0742 3.3359 7.4062 7.4102 7.4062h17.695c1.1953 0 2.3203-0.29297 3.3242-0.79688-2.418-1.2227-4.0898-3.7266-4.0898-6.6094z" fill="#338def"/>
</svg>
