<?xml version="1.0" encoding="iso-8859-1"?>
<!-- Generator: Adobe Illustrator 19.0.0, SVG Export Plug-In . SVG Version: 6.00 Build 0)  -->
<svg version="1.1" id="Capa_1" xmlns="http://www.w3.org/2000/svg" xmlns:xlink="http://www.w3.org/1999/xlink" x="0px" y="0px"
	 viewBox="0 0 512 512" style="enable-background:new 0 0 512 512;" xml:space="preserve">
<g>
	<g>
		<g>
			<path d="M405.333,245.333c0,0-42.667,46.187-42.667,74.667c0,23.573,19.093,42.667,42.667,42.667
				C428.907,362.667,448,343.573,448,320C448,291.52,405.333,245.333,405.333,245.333z"/>
			<path d="M162.56,0l-30.187,30.187l50.773,50.773L73.387,190.72c-12.48,12.48-12.48,32.747,0,45.227L190.72,353.28
				c6.187,6.293,14.4,9.387,22.613,9.387s16.427-3.093,22.613-9.387L353.28,235.947c12.48-12.48,12.48-32.747,0-45.227L162.56,0z
				 M111.04,213.333l102.293-102.187l102.293,102.187H111.04z"/>
		</g>
	</g>
</g>
<g>
	<g style="opacity:0.36;">
		<rect y="426.667" width="512" height="85.333"/>
	</g>
</g>
<g>
</g>
<g>
</g>
<g>
</g>
<g>
</g>
<g>
</g>
<g>
</g>
<g>
</g>
<g>
</g>
<g>
</g>
<g>
</g>
<g>
</g>
<g>
</g>
<g>
</g>
<g>
</g>
<g>
</g>
</svg>
