<?xml version="1.0" encoding="UTF-8" standalone="no"?>
<!DOCTYPE svg PUBLIC "-//W3C//DTD SVG 1.1//EN"
 "http://www.w3.org/Graphics/SVG/1.1/DTD/svg11.dtd">
<!-- Generated by graphviz version 2.40.1 (20161225.0304)
 -->
<!-- Title: dependencies Pages: 1 -->
<svg width="1328pt" height="284pt"
 viewBox="0.00 0.00 1328.00 284.00" xmlns="http://www.w3.org/2000/svg" xmlns:xlink="http://www.w3.org/1999/xlink">
<g id="graph0" class="graph" transform="scale(1 1) rotate(0) translate(4 280)">
<title>dependencies</title>
<polygon fill="#ffffff" stroke="transparent" points="-4,4 -4,-280 1324,-280 1324,4 -4,4"/>
<text text-anchor="start" x="639.0091" y="-42.4" font-family="sans-serif" font-weight="bold" font-size="14.00" fill="#000000">Legend</text>
<polygon fill="#ffffb3" stroke="transparent" points="426,-10 426,-30 446,-30 446,-10 426,-10"/>
<text text-anchor="start" x="449.629" y="-15.4" font-family="sans-serif" font-size="14.00" fill="#000000"> &#160;Declarations</text>
<polygon fill="#8dd3c7" stroke="transparent" points="539,-10 539,-30 559,-30 559,-10 539,-10"/>
<text text-anchor="start" x="562.7251" y="-15.4" font-family="sans-serif" font-size="14.00" fill="#000000"> &#160;Module</text>
<polygon fill="#80b1d3" stroke="transparent" points="625,-10 625,-30 645,-30 645,-10 625,-10"/>
<text text-anchor="start" x="648.7812" y="-15.4" font-family="sans-serif" font-size="14.00" fill="#000000"> &#160;Bootstrap</text>
<polygon fill="#fdb462" stroke="transparent" points="722,-10 722,-30 742,-30 742,-10 722,-10"/>
<text text-anchor="start" x="745.6732" y="-15.4" font-family="sans-serif" font-size="14.00" fill="#000000"> &#160;Providers</text>
<polygon fill="#fb8072" stroke="transparent" points="818,-10 818,-30 838,-30 838,-10 818,-10"/>
<text text-anchor="start" x="841.7258" y="-15.4" font-family="sans-serif" font-size="14.00" fill="#000000"> &#160;Exports</text>
<g id="clust1" class="cluster">
<title>cluster_UtilityModule</title>
<polygon fill="none" stroke="#000000" stroke-dasharray="1,5" points="8,-70 8,-268 1312,-268 1312,-70 8,-70"/>
</g>
<g id="clust2" class="cluster">
<title>cluster_UtilityModule_declarations</title>
<polygon fill="none" stroke="#000000" points="776,-78 776,-130 1304,-130 1304,-78 776,-78"/>
</g>
<g id="clust8" class="cluster">
<title>cluster_UtilityModule_exports</title>
<polygon fill="none" stroke="#000000" points="581,-208 581,-260 1122,-260 1122,-208 581,-208"/>
</g>
<g id="clust10" class="cluster">
<title>cluster_UtilityModule_providers</title>
<polygon fill="none" stroke="#000000" points="16,-78 16,-130 768,-130 768,-78 16,-78"/>
</g>
<!-- ClickOutsideDirective -->
<g id="node1" class="node">
<title>ClickOutsideDirective</title>
<polygon fill="#ffffb3" stroke="#000000" points="1295.9622,-122 1154.0378,-122 1154.0378,-86 1295.9622,-86 1295.9622,-122"/>
<text text-anchor="middle" x="1225" y="-99.8" font-family="Times,serif" font-size="14.00" fill="#000000">ClickOutsideDirective</text>
</g>
<!-- UtilityModule -->
<g id="node5" class="node">
<title>UtilityModule</title>
<polygon fill="#8dd3c7" stroke="#000000" points="895.1095,-187 892.1095,-191 871.1095,-191 868.1095,-187 798.8905,-187 798.8905,-151 895.1095,-151 895.1095,-187"/>
<text text-anchor="middle" x="847" y="-164.8" font-family="Times,serif" font-size="14.00" fill="#000000">UtilityModule</text>
</g>
<!-- ClickOutsideDirective&#45;&gt;UtilityModule -->
<g id="edge1" class="edge">
<title>ClickOutsideDirective&#45;&gt;UtilityModule</title>
<path fill="none" stroke="#000000" d="M1225,-122.1289C1225,-142.5724 1225,-173 1225,-173 1225,-173 905.2579,-173 905.2579,-173"/>
<polygon fill="#000000" stroke="#000000" points="905.2579,-169.5001 895.2579,-173 905.2579,-176.5001 905.2579,-169.5001"/>
</g>
<!-- InitDirective -->
<g id="node2" class="node">
<title>InitDirective</title>
<polygon fill="#ffffb3" stroke="#000000" points="1135.5259,-122 1048.4741,-122 1048.4741,-86 1135.5259,-86 1135.5259,-122"/>
<text text-anchor="middle" x="1092" y="-99.8" font-family="Times,serif" font-size="14.00" fill="#000000">InitDirective</text>
</g>
<!-- InitDirective&#45;&gt;UtilityModule -->
<g id="edge2" class="edge">
<title>InitDirective&#45;&gt;UtilityModule</title>
<path fill="none" stroke="#000000" d="M1080.9844,-122.2667C1080.9844,-140.5552 1080.9844,-166 1080.9844,-166 1080.9844,-166 905.198,-166 905.198,-166"/>
<polygon fill="#000000" stroke="#000000" points="905.198,-162.5001 895.198,-166 905.198,-169.5001 905.198,-162.5001"/>
</g>
<!-- FocusDirective -->
<g id="node3" class="node">
<title>FocusDirective</title>
<polygon fill="#ffffb3" stroke="#000000" points="1029.5257,-122 928.4743,-122 928.4743,-86 1029.5257,-86 1029.5257,-122"/>
<text text-anchor="middle" x="979" y="-99.8" font-family="Times,serif" font-size="14.00" fill="#000000">FocusDirective</text>
</g>
<!-- FocusDirective&#45;&gt;UtilityModule -->
<g id="edge3" class="edge">
<title>FocusDirective&#45;&gt;UtilityModule</title>
<path fill="none" stroke="#000000" d="M939.375,-122.0091C939.375,-138.0494 939.375,-159 939.375,-159 939.375,-159 905.0814,-159 905.0814,-159"/>
<polygon fill="#000000" stroke="#000000" points="905.0815,-155.5001 895.0814,-159 905.0814,-162.5001 905.0815,-155.5001"/>
</g>
<!-- PixelConverterPipe -->
<g id="node4" class="node">
<title>PixelConverterPipe</title>
<polygon fill="#ffffb3" stroke="#000000" points="909.6443,-122 784.3557,-122 784.3557,-86 909.6443,-86 909.6443,-122"/>
<text text-anchor="middle" x="847" y="-99.8" font-family="Times,serif" font-size="14.00" fill="#000000">PixelConverterPipe</text>
</g>
<!-- PixelConverterPipe&#45;&gt;UtilityModule -->
<g id="edge4" class="edge">
<title>PixelConverterPipe&#45;&gt;UtilityModule</title>
<path fill="none" stroke="#000000" d="M847,-122.1061C847,-122.1061 847,-140.991 847,-140.991"/>
<polygon fill="#000000" stroke="#000000" points="843.5001,-140.9909 847,-150.991 850.5001,-140.991 843.5001,-140.9909"/>
</g>
<!-- ClickOutsideDirective  -->
<g id="node6" class="node">
<title>ClickOutsideDirective </title>
<polygon fill="#fb8072" stroke="#000000" points="1113.9629,-252 968.0371,-252 968.0371,-216 1113.9629,-216 1113.9629,-252"/>
<text text-anchor="middle" x="1041" y="-229.8" font-family="Times,serif" font-size="14.00" fill="#000000">ClickOutsideDirective </text>
</g>
<!-- UtilityModule&#45;&gt;ClickOutsideDirective  -->
<g id="edge5" class="edge">
<title>UtilityModule&#45;&gt;ClickOutsideDirective </title>
<path fill="none" stroke="#000000" stroke-dasharray="5,2" d="M895.0987,-180C939.6345,-180 999.0156,-180 999.0156,-180 999.0156,-180 999.0156,-205.7181 999.0156,-205.7181"/>
<polygon fill="#000000" stroke="#000000" points="995.5157,-205.718 999.0156,-215.7181 1002.5157,-205.7181 995.5157,-205.718"/>
</g>
<!-- InitDirective  -->
<g id="node7" class="node">
<title>InitDirective </title>
<polygon fill="#fb8072" stroke="#000000" points="950.5246,-252 859.4754,-252 859.4754,-216 950.5246,-216 950.5246,-252"/>
<text text-anchor="middle" x="905" y="-229.8" font-family="Times,serif" font-size="14.00" fill="#000000">InitDirective </text>
</g>
<!-- UtilityModule&#45;&gt;InitDirective  -->
<g id="edge6" class="edge">
<title>UtilityModule&#45;&gt;InitDirective </title>
<path fill="none" stroke="#000000" stroke-dasharray="5,2" d="M877.2712,-187.1061C877.2712,-187.1061 877.2712,-205.991 877.2712,-205.991"/>
<polygon fill="#000000" stroke="#000000" points="873.7713,-205.9909 877.2712,-215.991 880.7713,-205.991 873.7713,-205.9909"/>
</g>
<!-- FocusDirective  -->
<g id="node8" class="node">
<title>FocusDirective </title>
<polygon fill="#fb8072" stroke="#000000" points="841.5246,-252 736.4754,-252 736.4754,-216 841.5246,-216 841.5246,-252"/>
<text text-anchor="middle" x="789" y="-229.8" font-family="Times,serif" font-size="14.00" fill="#000000">FocusDirective </text>
</g>
<!-- UtilityModule&#45;&gt;FocusDirective  -->
<g id="edge7" class="edge">
<title>UtilityModule&#45;&gt;FocusDirective </title>
<path fill="none" stroke="#000000" stroke-dasharray="5,2" d="M820.2288,-187.1061C820.2288,-187.1061 820.2288,-205.991 820.2288,-205.991"/>
<polygon fill="#000000" stroke="#000000" points="816.7289,-205.9909 820.2288,-215.991 823.7289,-205.991 816.7289,-205.9909"/>
</g>
<!-- PixelConverterPipe  -->
<g id="node9" class="node">
<title>PixelConverterPipe </title>
<polygon fill="#fb8072" stroke="#000000" points="718.6439,-252 589.3561,-252 589.3561,-216 718.6439,-216 718.6439,-252"/>
<text text-anchor="middle" x="654" y="-229.8" font-family="Times,serif" font-size="14.00" fill="#000000">PixelConverterPipe </text>
</g>
<!-- UtilityModule&#45;&gt;PixelConverterPipe  -->
<g id="edge8" class="edge">
<title>UtilityModule&#45;&gt;PixelConverterPipe </title>
<path fill="none" stroke="#000000" stroke-dasharray="5,2" d="M798.7958,-180C741.6306,-180 654,-180 654,-180 654,-180 654,-205.7181 654,-205.7181"/>
<polygon fill="#000000" stroke="#000000" points="650.5001,-205.718 654,-215.7181 657.5001,-205.7181 650.5001,-205.718"/>
</g>
<!-- DragAndDropService -->
<g id="node10" class="node">
<title>DragAndDropService</title>
<ellipse fill="#fdb462" stroke="#000000" cx="664" cy="-104" rx="95.5298" ry="18"/>
<text text-anchor="middle" x="664" y="-99.8" font-family="Times,serif" font-size="14.00" fill="#000000">DragAndDropService</text>
</g>
<!-- DragAndDropService&#45;&gt;UtilityModule -->
<g id="edge9" class="edge">
<title>DragAndDropService&#45;&gt;UtilityModule</title>
<path fill="none" stroke="#000000" d="M748.1262,-113.0821C748.1262,-128.7037 748.1262,-159 748.1262,-159 748.1262,-159 788.7217,-159 788.7217,-159"/>
<polygon fill="#000000" stroke="#000000" points="788.7217,-162.5001 798.7217,-159 788.7216,-155.5001 788.7217,-162.5001"/>
</g>
<!-- GlobalRefService -->
<g id="node11" class="node">
<title>GlobalRefService</title>
<ellipse fill="#fdb462" stroke="#000000" cx="470" cy="-104" rx="80.4325" ry="18"/>
<text text-anchor="middle" x="470" y="-99.8" font-family="Times,serif" font-size="14.00" fill="#000000">GlobalRefService</text>
</g>
<!-- GlobalRefService&#45;&gt;UtilityModule -->
<g id="edge10" class="edge">
<title>GlobalRefService&#45;&gt;UtilityModule</title>
<path fill="none" stroke="#000000" d="M470,-122.2667C470,-140.5552 470,-166 470,-166 470,-166 788.8698,-166 788.8698,-166"/>
<polygon fill="#000000" stroke="#000000" points="788.8698,-169.5001 798.8698,-166 788.8697,-162.5001 788.8698,-169.5001"/>
</g>
<!-- PopoverComponentLoaderFactoryService -->
<g id="node12" class="node">
<title>PopoverComponentLoaderFactoryService</title>
<ellipse fill="#fdb462" stroke="#000000" cx="198" cy="-104" rx="174.1649" ry="18"/>
<text text-anchor="middle" x="198" y="-99.8" font-family="Times,serif" font-size="14.00" fill="#000000">PopoverComponentLoaderFactoryService</text>
</g>
<!-- PopoverComponentLoaderFactoryService&#45;&gt;UtilityModule -->
<g id="edge11" class="edge">
<title>PopoverComponentLoaderFactoryService&#45;&gt;UtilityModule</title>
<path fill="none" stroke="#000000" d="M198,-122.1289C198,-142.5724 198,-173 198,-173 198,-173 788.7497,-173 788.7497,-173"/>
<polygon fill="#000000" stroke="#000000" points="788.7498,-176.5001 798.7497,-173 788.7497,-169.5001 788.7498,-176.5001"/>
</g>
</g>
</svg>
