<?xml version="1.0" encoding="UTF-8" standalone="no"?>
<!DOCTYPE svg PUBLIC "-//W3C//DTD SVG 1.1//EN"
 "http://www.w3.org/Graphics/SVG/1.1/DTD/svg11.dtd">
<!-- Generated by graphviz version 2.40.1 (20161225.0304)
 -->
<!-- Title: dependencies Pages: 1 -->
<svg width="3460pt" height="284pt"
 viewBox="0.00 0.00 3460.00 284.00" xmlns="http://www.w3.org/2000/svg" xmlns:xlink="http://www.w3.org/1999/xlink">
<g id="graph0" class="graph" transform="scale(1 1) rotate(0) translate(4 280)">
<title>dependencies</title>
<polygon fill="#ffffff" stroke="transparent" points="-4,4 -4,-280 3456,-280 3456,4 -4,4"/>
<text text-anchor="start" x="1705.0091" y="-42.4" font-family="sans-serif" font-weight="bold" font-size="14.00" fill="#000000">Legend</text>
<polygon fill="#ffffb3" stroke="transparent" points="1492,-10 1492,-30 1512,-30 1512,-10 1492,-10"/>
<text text-anchor="start" x="1515.629" y="-15.4" font-family="sans-serif" font-size="14.00" fill="#000000"> &#160;Declarations</text>
<polygon fill="#8dd3c7" stroke="transparent" points="1605,-10 1605,-30 1625,-30 1625,-10 1605,-10"/>
<text text-anchor="start" x="1628.7251" y="-15.4" font-family="sans-serif" font-size="14.00" fill="#000000"> &#160;Module</text>
<polygon fill="#80b1d3" stroke="transparent" points="1691,-10 1691,-30 1711,-30 1711,-10 1691,-10"/>
<text text-anchor="start" x="1714.7812" y="-15.4" font-family="sans-serif" font-size="14.00" fill="#000000"> &#160;Bootstrap</text>
<polygon fill="#fdb462" stroke="transparent" points="1788,-10 1788,-30 1808,-30 1808,-10 1788,-10"/>
<text text-anchor="start" x="1811.6732" y="-15.4" font-family="sans-serif" font-size="14.00" fill="#000000"> &#160;Providers</text>
<polygon fill="#fb8072" stroke="transparent" points="1884,-10 1884,-30 1904,-30 1904,-10 1884,-10"/>
<text text-anchor="start" x="1907.7258" y="-15.4" font-family="sans-serif" font-size="14.00" fill="#000000"> &#160;Exports</text>
<g id="clust1" class="cluster">
<title>cluster_DataTableModule</title>
<polygon fill="none" stroke="#000000" stroke-dasharray="1,5" points="8,-70 8,-268 3444,-268 3444,-70 8,-70"/>
</g>
<g id="clust2" class="cluster">
<title>cluster_DataTableModule_declarations</title>
<polygon fill="none" stroke="#000000" points="16,-78 16,-130 3436,-130 3436,-78 16,-78"/>
</g>
<g id="clust20" class="cluster">
<title>cluster_DataTableModule_exports</title>
<polygon fill="none" stroke="#000000" points="1597,-208 1597,-260 1963,-260 1963,-208 1597,-208"/>
</g>
<!-- DataTableHeaderComponent -->
<g id="node1" class="node">
<title>DataTableHeaderComponent</title>
<polygon fill="#ffffb3" stroke="#000000" points="3428.0422,-122 3247.9578,-122 3247.9578,-86 3428.0422,-86 3428.0422,-122"/>
<text text-anchor="middle" x="3338" y="-99.8" font-family="Times,serif" font-size="14.00" fill="#000000">DataTableHeaderComponent</text>
</g>
<!-- DataTableModule -->
<g id="node17" class="node">
<title>DataTableModule</title>
<polygon fill="#8dd3c7" stroke="#000000" points="1827.8487,-187 1824.8487,-191 1803.8487,-191 1800.8487,-187 1710.1513,-187 1710.1513,-151 1827.8487,-151 1827.8487,-187"/>
<text text-anchor="middle" x="1769" y="-164.8" font-family="Times,serif" font-size="14.00" fill="#000000">DataTableModule</text>
</g>
<!-- DataTableHeaderComponent&#45;&gt;DataTableModule -->
<g id="edge1" class="edge">
<title>DataTableHeaderComponent&#45;&gt;DataTableModule</title>
<path fill="none" stroke="#000000" d="M3338,-122.3228C3338,-145.6602 3338,-183 3338,-183 3338,-183 1838.1161,-183 1838.1161,-183"/>
<polygon fill="#000000" stroke="#000000" points="1838.1161,-179.5001 1828.1161,-183 1838.116,-186.5001 1838.1161,-179.5001"/>
</g>
<!-- DataTableColumnComponent -->
<g id="node2" class="node">
<title>DataTableColumnComponent</title>
<polygon fill="#ffffb3" stroke="#000000" points="3230.2492,-122 3045.7508,-122 3045.7508,-86 3230.2492,-86 3230.2492,-122"/>
<text text-anchor="middle" x="3138" y="-99.8" font-family="Times,serif" font-size="14.00" fill="#000000">DataTableColumnComponent</text>
</g>
<!-- DataTableColumnComponent&#45;&gt;DataTableModule -->
<g id="edge2" class="edge">
<title>DataTableColumnComponent&#45;&gt;DataTableModule</title>
<path fill="none" stroke="#000000" d="M3138,-122.2921C3138,-144.2057 3138,-178 3138,-178 3138,-178 1838.2636,-178 1838.2636,-178"/>
<polygon fill="#000000" stroke="#000000" points="1838.2637,-174.5001 1828.2636,-178 1838.2636,-181.5001 1838.2637,-174.5001"/>
</g>
<!-- DataTableColGroupComponent -->
<g id="node3" class="node">
<title>DataTableColGroupComponent</title>
<polygon fill="#ffffb3" stroke="#000000" points="3027.626,-122 2832.374,-122 2832.374,-86 3027.626,-86 3027.626,-122"/>
<text text-anchor="middle" x="2930" y="-99.8" font-family="Times,serif" font-size="14.00" fill="#000000">DataTableColGroupComponent</text>
</g>
<!-- DataTableColGroupComponent&#45;&gt;DataTableModule -->
<g id="edge3" class="edge">
<title>DataTableColGroupComponent&#45;&gt;DataTableModule</title>
<path fill="none" stroke="#000000" d="M2930,-122.0267C2930,-142.7672 2930,-174 2930,-174 2930,-174 1838.1703,-174 1838.1703,-174"/>
<polygon fill="#000000" stroke="#000000" points="1838.1703,-170.5001 1828.1703,-174 1838.1703,-177.5001 1838.1703,-170.5001"/>
</g>
<!-- DataTableBodyComponent -->
<g id="node4" class="node">
<title>DataTableBodyComponent</title>
<polygon fill="#ffffb3" stroke="#000000" points="2813.9678,-122 2644.0322,-122 2644.0322,-86 2813.9678,-86 2813.9678,-122"/>
<text text-anchor="middle" x="2729" y="-99.8" font-family="Times,serif" font-size="14.00" fill="#000000">DataTableBodyComponent</text>
</g>
<!-- DataTableBodyComponent&#45;&gt;DataTableModule -->
<g id="edge4" class="edge">
<title>DataTableBodyComponent&#45;&gt;DataTableModule</title>
<path fill="none" stroke="#000000" d="M2729,-122.1061C2729,-141.3391 2729,-169 2729,-169 2729,-169 1837.967,-169 1837.967,-169"/>
<polygon fill="#000000" stroke="#000000" points="1837.9671,-165.5001 1827.967,-169 1837.967,-172.5001 1837.9671,-165.5001"/>
</g>
<!-- DataTablePaginationComponent -->
<g id="node5" class="node">
<title>DataTablePaginationComponent</title>
<polygon fill="#ffffb3" stroke="#000000" points="2625.5154,-122 2426.4846,-122 2426.4846,-86 2625.5154,-86 2625.5154,-122"/>
<text text-anchor="middle" x="2526" y="-99.8" font-family="Times,serif" font-size="14.00" fill="#000000">DataTablePaginationComponent</text>
</g>
<!-- DataTablePaginationComponent&#45;&gt;DataTableModule -->
<g id="edge5" class="edge">
<title>DataTablePaginationComponent&#45;&gt;DataTableModule</title>
<path fill="none" stroke="#000000" d="M2526,-122.302C2526,-140.2699 2526,-165 2526,-165 2526,-165 1838.0852,-165 1838.0852,-165"/>
<polygon fill="#000000" stroke="#000000" points="1838.0852,-161.5001 1828.0852,-165 1838.0852,-168.5001 1838.0852,-161.5001"/>
</g>
<!-- DataTableComponent -->
<g id="node6" class="node">
<title>DataTableComponent</title>
<polygon fill="#ffffb3" stroke="#000000" points="2407.6317,-122 2268.3683,-122 2268.3683,-86 2407.6317,-86 2407.6317,-122"/>
<text text-anchor="middle" x="2338" y="-99.8" font-family="Times,serif" font-size="14.00" fill="#000000">DataTableComponent</text>
</g>
<!-- DataTableComponent&#45;&gt;DataTableModule -->
<g id="edge6" class="edge">
<title>DataTableComponent&#45;&gt;DataTableModule</title>
<path fill="none" stroke="#000000" d="M2338,-122.027C2338,-138.3976 2338,-160 2338,-160 2338,-160 1838.0161,-160 1838.0161,-160"/>
<polygon fill="#000000" stroke="#000000" points="1838.0161,-156.5001 1828.0161,-160 1838.016,-163.5001 1838.0161,-156.5001"/>
</g>
<!-- DataTableColumnSelectorComponent -->
<g id="node7" class="node">
<title>DataTableColumnSelectorComponent</title>
<polygon fill="#ffffb3" stroke="#000000" points="2250.1175,-122 2019.8825,-122 2019.8825,-86 2250.1175,-86 2250.1175,-122"/>
<text text-anchor="middle" x="2135" y="-99.8" font-family="Times,serif" font-size="14.00" fill="#000000">DataTableColumnSelectorComponent</text>
</g>
<!-- DataTableColumnSelectorComponent&#45;&gt;DataTableModule -->
<g id="edge7" class="edge">
<title>DataTableColumnSelectorComponent&#45;&gt;DataTableModule</title>
<path fill="none" stroke="#000000" d="M2135,-122.1871C2135,-137.1824 2135,-156 2135,-156 2135,-156 1838.211,-156 1838.211,-156"/>
<polygon fill="#000000" stroke="#000000" points="1838.211,-152.5001 1828.211,-156 1838.211,-159.5001 1838.211,-152.5001"/>
</g>
<!-- DataTableNoDataBodyComponent -->
<g id="node8" class="node">
<title>DataTableNoDataBodyComponent</title>
<polygon fill="#ffffb3" stroke="#000000" points="2001.5014,-122 1788.4986,-122 1788.4986,-86 2001.5014,-86 2001.5014,-122"/>
<text text-anchor="middle" x="1895" y="-99.8" font-family="Times,serif" font-size="14.00" fill="#000000">DataTableNoDataBodyComponent</text>
</g>
<!-- DataTableNoDataBodyComponent&#45;&gt;DataTableModule -->
<g id="edge8" class="edge">
<title>DataTableNoDataBodyComponent&#45;&gt;DataTableModule</title>
<path fill="none" stroke="#000000" d="M1808.087,-122.1061C1808.087,-122.1061 1808.087,-140.991 1808.087,-140.991"/>
<polygon fill="#000000" stroke="#000000" points="1804.587,-140.9909 1808.087,-150.991 1811.587,-140.991 1804.587,-140.9909"/>
</g>
<!-- DataTableColumnFilterHeaderComponent -->
<g id="node9" class="node">
<title>DataTableColumnFilterHeaderComponent</title>
<polygon fill="#ffffb3" stroke="#000000" points="1770.9901,-122 1515.0099,-122 1515.0099,-86 1770.9901,-86 1770.9901,-122"/>
<text text-anchor="middle" x="1643" y="-99.8" font-family="Times,serif" font-size="14.00" fill="#000000">DataTableColumnFilterHeaderComponent</text>
</g>
<!-- DataTableColumnFilterHeaderComponent&#45;&gt;DataTableModule -->
<g id="edge9" class="edge">
<title>DataTableColumnFilterHeaderComponent&#45;&gt;DataTableModule</title>
<path fill="none" stroke="#000000" d="M1740.4103,-122.1061C1740.4103,-122.1061 1740.4103,-140.991 1740.4103,-140.991"/>
<polygon fill="#000000" stroke="#000000" points="1736.9103,-140.9909 1740.4103,-150.991 1743.9103,-140.991 1736.9103,-140.9909"/>
</g>
<!-- DataTableColumnFilterTemplateComponent -->
<g id="node10" class="node">
<title>DataTableColumnFilterTemplateComponent</title>
<polygon fill="#ffffb3" stroke="#000000" points="1496.9468,-122 1229.0532,-122 1229.0532,-86 1496.9468,-86 1496.9468,-122"/>
<text text-anchor="middle" x="1363" y="-99.8" font-family="Times,serif" font-size="14.00" fill="#000000">DataTableColumnFilterTemplateComponent</text>
</g>
<!-- DataTableColumnFilterTemplateComponent&#45;&gt;DataTableModule -->
<g id="edge10" class="edge">
<title>DataTableColumnFilterTemplateComponent&#45;&gt;DataTableModule</title>
<path fill="none" stroke="#000000" d="M1363,-122.1871C1363,-137.1824 1363,-156 1363,-156 1363,-156 1699.9641,-156 1699.9641,-156"/>
<polygon fill="#000000" stroke="#000000" points="1699.9641,-159.5001 1709.9641,-156 1699.9641,-152.5001 1699.9641,-159.5001"/>
</g>
<!-- DataTableColumnTitleHeaderComponent -->
<g id="node11" class="node">
<title>DataTableColumnTitleHeaderComponent</title>
<polygon fill="#ffffb3" stroke="#000000" points="1210.5993,-122 959.4007,-122 959.4007,-86 1210.5993,-86 1210.5993,-122"/>
<text text-anchor="middle" x="1085" y="-99.8" font-family="Times,serif" font-size="14.00" fill="#000000">DataTableColumnTitleHeaderComponent</text>
</g>
<!-- DataTableColumnTitleHeaderComponent&#45;&gt;DataTableModule -->
<g id="edge11" class="edge">
<title>DataTableColumnTitleHeaderComponent&#45;&gt;DataTableModule</title>
<path fill="none" stroke="#000000" d="M1085,-122.027C1085,-138.3976 1085,-160 1085,-160 1085,-160 1700.0905,-160 1700.0905,-160"/>
<polygon fill="#000000" stroke="#000000" points="1700.0906,-163.5001 1710.0905,-160 1700.0905,-156.5001 1700.0906,-163.5001"/>
</g>
<!-- DataTableHeadComponent -->
<g id="node12" class="node">
<title>DataTableHeadComponent</title>
<polygon fill="#ffffb3" stroke="#000000" points="941.6671,-122 772.3329,-122 772.3329,-86 941.6671,-86 941.6671,-122"/>
<text text-anchor="middle" x="857" y="-99.8" font-family="Times,serif" font-size="14.00" fill="#000000">DataTableHeadComponent</text>
</g>
<!-- DataTableHeadComponent&#45;&gt;DataTableModule -->
<g id="edge12" class="edge">
<title>DataTableHeadComponent&#45;&gt;DataTableModule</title>
<path fill="none" stroke="#000000" d="M857,-122.302C857,-140.2699 857,-165 857,-165 857,-165 1699.8638,-165 1699.8638,-165"/>
<polygon fill="#000000" stroke="#000000" points="1699.8639,-168.5001 1709.8638,-165 1699.8638,-161.5001 1699.8639,-168.5001"/>
</g>
<!-- DataTableLoadingSpinnerComponent -->
<g id="node13" class="node">
<title>DataTableLoadingSpinnerComponent</title>
<polygon fill="#ffffb3" stroke="#000000" points="753.8375,-122 524.1625,-122 524.1625,-86 753.8375,-86 753.8375,-122"/>
<text text-anchor="middle" x="639" y="-99.8" font-family="Times,serif" font-size="14.00" fill="#000000">DataTableLoadingSpinnerComponent</text>
</g>
<!-- DataTableLoadingSpinnerComponent&#45;&gt;DataTableModule -->
<g id="edge13" class="edge">
<title>DataTableLoadingSpinnerComponent&#45;&gt;DataTableModule</title>
<path fill="none" stroke="#000000" d="M639,-122.1061C639,-141.3391 639,-169 639,-169 639,-169 1699.8373,-169 1699.8373,-169"/>
<polygon fill="#000000" stroke="#000000" points="1699.8373,-172.5001 1709.8373,-169 1699.8373,-165.5001 1699.8373,-172.5001"/>
</g>
<!-- ScrollPositionDirective -->
<g id="node14" class="node">
<title>ScrollPositionDirective</title>
<polygon fill="#ffffb3" stroke="#000000" points="505.9214,-122 358.0786,-122 358.0786,-86 505.9214,-86 505.9214,-122"/>
<text text-anchor="middle" x="432" y="-99.8" font-family="Times,serif" font-size="14.00" fill="#000000">ScrollPositionDirective</text>
</g>
<!-- ScrollPositionDirective&#45;&gt;DataTableModule -->
<g id="edge14" class="edge">
<title>ScrollPositionDirective&#45;&gt;DataTableModule</title>
<path fill="none" stroke="#000000" d="M432,-122.0267C432,-142.7672 432,-174 432,-174 432,-174 1699.8256,-174 1699.8256,-174"/>
<polygon fill="#000000" stroke="#000000" points="1699.8257,-177.5001 1709.8256,-174 1699.8256,-170.5001 1699.8257,-177.5001"/>
</g>
<!-- ScrollElementDirective -->
<g id="node15" class="node">
<title>ScrollElementDirective</title>
<polygon fill="#ffffb3" stroke="#000000" points="340.1755,-122 191.8245,-122 191.8245,-86 340.1755,-86 340.1755,-122"/>
<text text-anchor="middle" x="266" y="-99.8" font-family="Times,serif" font-size="14.00" fill="#000000">ScrollElementDirective</text>
</g>
<!-- ScrollElementDirective&#45;&gt;DataTableModule -->
<g id="edge15" class="edge">
<title>ScrollElementDirective&#45;&gt;DataTableModule</title>
<path fill="none" stroke="#000000" d="M266,-122.2921C266,-144.2057 266,-178 266,-178 266,-178 1700.0806,-178 1700.0806,-178"/>
<polygon fill="#000000" stroke="#000000" points="1700.0807,-181.5001 1710.0806,-178 1700.0806,-174.5001 1700.0807,-181.5001"/>
</g>
<!-- ElementWidthDirective -->
<g id="node16" class="node">
<title>ElementWidthDirective</title>
<polygon fill="#ffffb3" stroke="#000000" points="173.7324,-122 24.2676,-122 24.2676,-86 173.7324,-86 173.7324,-122"/>
<text text-anchor="middle" x="99" y="-99.8" font-family="Times,serif" font-size="14.00" fill="#000000">ElementWidthDirective</text>
</g>
<!-- ElementWidthDirective&#45;&gt;DataTableModule -->
<g id="edge16" class="edge">
<title>ElementWidthDirective&#45;&gt;DataTableModule</title>
<path fill="none" stroke="#000000" d="M99,-122.3228C99,-145.6602 99,-183 99,-183 99,-183 1700.0543,-183 1700.0543,-183"/>
<polygon fill="#000000" stroke="#000000" points="1700.0544,-186.5001 1710.0543,-183 1700.0543,-179.5001 1700.0544,-186.5001"/>
</g>
<!-- DataTableColumnComponent  -->
<g id="node18" class="node">
<title>DataTableColumnComponent </title>
<polygon fill="#fb8072" stroke="#000000" points="1955.2492,-252 1766.7508,-252 1766.7508,-216 1955.2492,-216 1955.2492,-252"/>
<text text-anchor="middle" x="1861" y="-229.8" font-family="Times,serif" font-size="14.00" fill="#000000">DataTableColumnComponent </text>
</g>
<!-- DataTableModule&#45;&gt;DataTableColumnComponent  -->
<g id="edge17" class="edge">
<title>DataTableModule&#45;&gt;DataTableColumnComponent </title>
<path fill="none" stroke="#000000" stroke-dasharray="5,2" d="M1797.3999,-187.1061C1797.3999,-187.1061 1797.3999,-205.991 1797.3999,-205.991"/>
<polygon fill="#000000" stroke="#000000" points="1793.9,-205.9909 1797.3999,-215.991 1800.9,-205.991 1793.9,-205.9909"/>
</g>
<!-- DataTableComponent  -->
<g id="node19" class="node">
<title>DataTableComponent </title>
<polygon fill="#fb8072" stroke="#000000" points="1748.6313,-252 1605.3687,-252 1605.3687,-216 1748.6313,-216 1748.6313,-252"/>
<text text-anchor="middle" x="1677" y="-229.8" font-family="Times,serif" font-size="14.00" fill="#000000">DataTableComponent </text>
</g>
<!-- DataTableModule&#45;&gt;DataTableComponent  -->
<g id="edge18" class="edge">
<title>DataTableModule&#45;&gt;DataTableComponent </title>
<path fill="none" stroke="#000000" stroke-dasharray="5,2" d="M1729.3207,-187.1061C1729.3207,-187.1061 1729.3207,-205.991 1729.3207,-205.991"/>
<polygon fill="#000000" stroke="#000000" points="1725.8207,-205.9909 1729.3207,-215.991 1732.8207,-205.991 1725.8207,-205.9909"/>
</g>
</g>
</svg>
