<?xml version="1.0" encoding="iso-8859-1"?>
<!-- Generator: Adobe Illustrator 19.0.0, SVG Export Plug-In . SVG Version: 6.00 Build 0)  -->
<svg version="1.1" id="Capa_1" xmlns="http://www.w3.org/2000/svg" xmlns:xlink="http://www.w3.org/1999/xlink" x="0px" y="0px"
	 viewBox="0 0 245.019 245.019" style="enable-background:new 0 0 245.019 245.019;" xml:space="preserve">
<g>
	<g>
		<g>
			<g>
				<path d="M237.862,110.984L143.818,4.672c-6.229-6.229-16.432-6.229-22.597,0
					c-6.229,6.229-6.229,16.368,0,22.597l84.192,95.22l-84.192,95.22c-6.229,6.229-6.229,16.432,0,22.597
					c6.198,6.229,16.368,6.229,22.597,0l94.044-106.312c3.178-3.178,4.64-7.342,4.64-11.505S241.009,114.163,237.862,110.984z"/>
				<path d="M128.467,122.521c0.064-4.164-1.462-8.359-4.64-11.505L29.814,4.672
					c-6.229-6.229-16.4-6.229-22.597,0c-6.229,6.229-6.229,16.368,0,22.597l84.192,95.22L7.217,217.71
					c-6.261,6.261-6.261,16.368-0.032,22.661c6.198,6.198,16.368,6.198,22.597,0l94.044-106.344
					C127.005,130.848,128.53,126.685,128.467,122.521z"/>
			</g>
		</g>
	</g>
</g>
</svg>
