<?xml version="1.0" encoding="UTF-8" standalone="no"?>
<!DOCTYPE svg PUBLIC "-//W3C//DTD SVG 1.1//EN"
 "http://www.w3.org/Graphics/SVG/1.1/DTD/svg11.dtd">
<!-- Generated by graphviz version 2.40.1 (20161225.0304)
 -->
<!-- Title: dependencies Pages: 1 -->
<svg width="5537pt" height="284pt"
 viewBox="0.00 0.00 5537.00 284.00" xmlns="http://www.w3.org/2000/svg" xmlns:xlink="http://www.w3.org/1999/xlink">
<g id="graph0" class="graph" transform="scale(1 1) rotate(0) translate(4 280)">
<title>dependencies</title>
<polygon fill="#ffffff" stroke="transparent" points="-4,4 -4,-280 5533,-280 5533,4 -4,4"/>
<text text-anchor="start" x="2743.5091" y="-42.4" font-family="sans-serif" font-weight="bold" font-size="14.00" fill="#000000">Legend</text>
<polygon fill="#ffffb3" stroke="transparent" points="2530.5,-10 2530.5,-30 2550.5,-30 2550.5,-10 2530.5,-10"/>
<text text-anchor="start" x="2554.129" y="-15.4" font-family="sans-serif" font-size="14.00" fill="#000000"> &#160;Declarations</text>
<polygon fill="#8dd3c7" stroke="transparent" points="2643.5,-10 2643.5,-30 2663.5,-30 2663.5,-10 2643.5,-10"/>
<text text-anchor="start" x="2667.2251" y="-15.4" font-family="sans-serif" font-size="14.00" fill="#000000"> &#160;Module</text>
<polygon fill="#80b1d3" stroke="transparent" points="2729.5,-10 2729.5,-30 2749.5,-30 2749.5,-10 2729.5,-10"/>
<text text-anchor="start" x="2753.2812" y="-15.4" font-family="sans-serif" font-size="14.00" fill="#000000"> &#160;Bootstrap</text>
<polygon fill="#fdb462" stroke="transparent" points="2826.5,-10 2826.5,-30 2846.5,-30 2846.5,-10 2826.5,-10"/>
<text text-anchor="start" x="2850.1732" y="-15.4" font-family="sans-serif" font-size="14.00" fill="#000000"> &#160;Providers</text>
<polygon fill="#fb8072" stroke="transparent" points="2922.5,-10 2922.5,-30 2942.5,-30 2942.5,-10 2922.5,-10"/>
<text text-anchor="start" x="2946.2258" y="-15.4" font-family="sans-serif" font-size="14.00" fill="#000000"> &#160;Exports</text>
<g id="clust1" class="cluster">
<title>cluster_DataTableModule</title>
<polygon fill="none" stroke="#000000" stroke-dasharray="1,5" points="8,-70 8,-268 3444,-268 3444,-70 8,-70"/>
</g>
<g id="clust2" class="cluster">
<title>cluster_DataTableModule_declarations</title>
<polygon fill="none" stroke="#000000" points="16,-78 16,-130 3436,-130 3436,-78 16,-78"/>
</g>
<g id="clust20" class="cluster">
<title>cluster_DataTableModule_exports</title>
<polygon fill="none" stroke="#000000" points="1597,-208 1597,-260 1963,-260 1963,-208 1597,-208"/>
</g>
<g id="clust23" class="cluster">
<title>cluster_DropdownModule</title>
<polygon fill="none" stroke="#000000" stroke-dasharray="1,5" points="3452,-70 3452,-268 4209,-268 4209,-70 3452,-70"/>
</g>
<g id="clust24" class="cluster">
<title>cluster_DropdownModule_declarations</title>
<polygon fill="none" stroke="#000000" points="3460,-78 3460,-130 4201,-130 4201,-78 3460,-78"/>
</g>
<g id="clust30" class="cluster">
<title>cluster_DropdownModule_exports</title>
<polygon fill="none" stroke="#000000" points="3773,-208 3773,-260 3933,-260 3933,-208 3773,-208"/>
</g>
<g id="clust33" class="cluster">
<title>cluster_UtilityModule</title>
<polygon fill="none" stroke="#000000" stroke-dasharray="1,5" points="4217,-70 4217,-268 5521,-268 5521,-70 4217,-70"/>
</g>
<g id="clust34" class="cluster">
<title>cluster_UtilityModule_declarations</title>
<polygon fill="none" stroke="#000000" points="4985,-78 4985,-130 5513,-130 5513,-78 4985,-78"/>
</g>
<g id="clust40" class="cluster">
<title>cluster_UtilityModule_exports</title>
<polygon fill="none" stroke="#000000" points="4790,-208 4790,-260 5331,-260 5331,-208 4790,-208"/>
</g>
<g id="clust42" class="cluster">
<title>cluster_UtilityModule_providers</title>
<polygon fill="none" stroke="#000000" points="4225,-78 4225,-130 4977,-130 4977,-78 4225,-78"/>
</g>
<!-- DataTableHeaderComponent -->
<g id="node1" class="node">
<title>DataTableHeaderComponent</title>
<polygon fill="#ffffb3" stroke="#000000" points="3428.0422,-122 3247.9578,-122 3247.9578,-86 3428.0422,-86 3428.0422,-122"/>
<text text-anchor="middle" x="3338" y="-99.8" font-family="Times,serif" font-size="14.00" fill="#000000">DataTableHeaderComponent</text>
</g>
<!-- DataTableModule -->
<g id="node17" class="node">
<title>DataTableModule</title>
<polygon fill="#8dd3c7" stroke="#000000" points="1827.8487,-187 1824.8487,-191 1803.8487,-191 1800.8487,-187 1710.1513,-187 1710.1513,-151 1827.8487,-151 1827.8487,-187"/>
<text text-anchor="middle" x="1769" y="-164.8" font-family="Times,serif" font-size="14.00" fill="#000000">DataTableModule</text>
</g>
<!-- DataTableHeaderComponent&#45;&gt;DataTableModule -->
<g id="edge1" class="edge">
<title>DataTableHeaderComponent&#45;&gt;DataTableModule</title>
<path fill="none" stroke="#000000" d="M3338,-122.1554C3338,-144.3519 3338,-179 3338,-179 3338,-179 1838.1161,-179 1838.1161,-179"/>
<polygon fill="#000000" stroke="#000000" points="1838.1161,-175.5001 1828.1161,-179 1838.116,-182.5001 1838.1161,-175.5001"/>
</g>
<!-- DataTableColumnComponent -->
<g id="node2" class="node">
<title>DataTableColumnComponent</title>
<polygon fill="#ffffb3" stroke="#000000" points="3230.2492,-122 3045.7508,-122 3045.7508,-86 3230.2492,-86 3230.2492,-122"/>
<text text-anchor="middle" x="3138" y="-99.8" font-family="Times,serif" font-size="14.00" fill="#000000">DataTableColumnComponent</text>
</g>
<!-- DataTableColumnComponent&#45;&gt;DataTableModule -->
<g id="edge2" class="edge">
<title>DataTableColumnComponent&#45;&gt;DataTableModule</title>
<path fill="none" stroke="#000000" d="M3138,-122.2843C3138,-143.3211 3138,-175 3138,-175 3138,-175 1838.2636,-175 1838.2636,-175"/>
<polygon fill="#000000" stroke="#000000" points="1838.2637,-171.5001 1828.2636,-175 1838.2636,-178.5001 1838.2637,-171.5001"/>
</g>
<!-- DataTableColGroupComponent -->
<g id="node3" class="node">
<title>DataTableColGroupComponent</title>
<polygon fill="#ffffb3" stroke="#000000" points="3027.626,-122 2832.374,-122 2832.374,-86 3027.626,-86 3027.626,-122"/>
<text text-anchor="middle" x="2930" y="-99.8" font-family="Times,serif" font-size="14.00" fill="#000000">DataTableColGroupComponent</text>
</g>
<!-- DataTableColGroupComponent&#45;&gt;DataTableModule -->
<g id="edge3" class="edge">
<title>DataTableColGroupComponent&#45;&gt;DataTableModule</title>
<path fill="none" stroke="#000000" d="M2930,-122.308C2930,-142.1455 2930,-171 2930,-171 2930,-171 1838.1703,-171 1838.1703,-171"/>
<polygon fill="#000000" stroke="#000000" points="1838.1703,-167.5001 1828.1703,-171 1838.1703,-174.5001 1838.1703,-167.5001"/>
</g>
<!-- DataTableBodyComponent -->
<g id="node4" class="node">
<title>DataTableBodyComponent</title>
<polygon fill="#ffffb3" stroke="#000000" points="2813.9678,-122 2644.0322,-122 2644.0322,-86 2813.9678,-86 2813.9678,-122"/>
<text text-anchor="middle" x="2729" y="-99.8" font-family="Times,serif" font-size="14.00" fill="#000000">DataTableBodyComponent</text>
</g>
<!-- DataTableBodyComponent&#45;&gt;DataTableModule -->
<g id="edge4" class="edge">
<title>DataTableBodyComponent&#45;&gt;DataTableModule</title>
<path fill="none" stroke="#000000" d="M2729,-122.2222C2729,-140.8285 2729,-167 2729,-167 2729,-167 1837.967,-167 1837.967,-167"/>
<polygon fill="#000000" stroke="#000000" points="1837.9671,-163.5001 1827.967,-167 1837.967,-170.5001 1837.9671,-163.5001"/>
</g>
<!-- DataTablePaginationComponent -->
<g id="node5" class="node">
<title>DataTablePaginationComponent</title>
<polygon fill="#ffffb3" stroke="#000000" points="2625.5154,-122 2426.4846,-122 2426.4846,-86 2625.5154,-86 2625.5154,-122"/>
<text text-anchor="middle" x="2526" y="-99.8" font-family="Times,serif" font-size="14.00" fill="#000000">DataTablePaginationComponent</text>
</g>
<!-- DataTablePaginationComponent&#45;&gt;DataTableModule -->
<g id="edge5" class="edge">
<title>DataTablePaginationComponent&#45;&gt;DataTableModule</title>
<path fill="none" stroke="#000000" d="M2526,-122.0225C2526,-139.3734 2526,-163 2526,-163 2526,-163 1838.0852,-163 1838.0852,-163"/>
<polygon fill="#000000" stroke="#000000" points="1838.0852,-159.5001 1828.0852,-163 1838.0852,-166.5001 1838.0852,-159.5001"/>
</g>
<!-- DataTableComponent -->
<g id="node6" class="node">
<title>DataTableComponent</title>
<polygon fill="#ffffb3" stroke="#000000" points="2407.6317,-122 2268.3683,-122 2268.3683,-86 2407.6317,-86 2407.6317,-122"/>
<text text-anchor="middle" x="2338" y="-99.8" font-family="Times,serif" font-size="14.00" fill="#000000">DataTableComponent</text>
</g>
<!-- DataTableComponent&#45;&gt;DataTableModule -->
<g id="edge6" class="edge">
<title>DataTableComponent&#45;&gt;DataTableModule</title>
<path fill="none" stroke="#000000" d="M2338,-122.0091C2338,-138.0494 2338,-159 2338,-159 2338,-159 1838.0161,-159 1838.0161,-159"/>
<polygon fill="#000000" stroke="#000000" points="1838.0161,-155.5001 1828.0161,-159 1838.016,-162.5001 1838.0161,-155.5001"/>
</g>
<!-- DataTableColumnSelectorComponent -->
<g id="node7" class="node">
<title>DataTableColumnSelectorComponent</title>
<polygon fill="#ffffb3" stroke="#000000" points="2250.1175,-122 2019.8825,-122 2019.8825,-86 2250.1175,-86 2250.1175,-122"/>
<text text-anchor="middle" x="2135" y="-99.8" font-family="Times,serif" font-size="14.00" fill="#000000">DataTableColumnSelectorComponent</text>
</g>
<!-- DataTableColumnSelectorComponent&#45;&gt;DataTableModule -->
<g id="edge7" class="edge">
<title>DataTableColumnSelectorComponent&#45;&gt;DataTableModule</title>
<path fill="none" stroke="#000000" d="M2135,-122.1243C2135,-136.7832 2135,-155 2135,-155 2135,-155 1838.211,-155 1838.211,-155"/>
<polygon fill="#000000" stroke="#000000" points="1838.211,-151.5001 1828.211,-155 1838.211,-158.5001 1838.211,-151.5001"/>
</g>
<!-- DataTableNoDataBodyComponent -->
<g id="node8" class="node">
<title>DataTableNoDataBodyComponent</title>
<polygon fill="#ffffb3" stroke="#000000" points="2001.5014,-122 1788.4986,-122 1788.4986,-86 2001.5014,-86 2001.5014,-122"/>
<text text-anchor="middle" x="1895" y="-99.8" font-family="Times,serif" font-size="14.00" fill="#000000">DataTableNoDataBodyComponent</text>
</g>
<!-- DataTableNoDataBodyComponent&#45;&gt;DataTableModule -->
<g id="edge8" class="edge">
<title>DataTableNoDataBodyComponent&#45;&gt;DataTableModule</title>
<path fill="none" stroke="#000000" d="M1808.087,-122.1061C1808.087,-122.1061 1808.087,-140.991 1808.087,-140.991"/>
<polygon fill="#000000" stroke="#000000" points="1804.587,-140.9909 1808.087,-150.991 1811.587,-140.991 1804.587,-140.9909"/>
</g>
<!-- DataTableColumnFilterHeaderComponent -->
<g id="node9" class="node">
<title>DataTableColumnFilterHeaderComponent</title>
<polygon fill="#ffffb3" stroke="#000000" points="1770.9901,-122 1515.0099,-122 1515.0099,-86 1770.9901,-86 1770.9901,-122"/>
<text text-anchor="middle" x="1643" y="-99.8" font-family="Times,serif" font-size="14.00" fill="#000000">DataTableColumnFilterHeaderComponent</text>
</g>
<!-- DataTableColumnFilterHeaderComponent&#45;&gt;DataTableModule -->
<g id="edge9" class="edge">
<title>DataTableColumnFilterHeaderComponent&#45;&gt;DataTableModule</title>
<path fill="none" stroke="#000000" d="M1740.4103,-122.1061C1740.4103,-122.1061 1740.4103,-140.991 1740.4103,-140.991"/>
<polygon fill="#000000" stroke="#000000" points="1736.9103,-140.9909 1740.4103,-150.991 1743.9103,-140.991 1736.9103,-140.9909"/>
</g>
<!-- DataTableColumnFilterTemplateComponent -->
<g id="node10" class="node">
<title>DataTableColumnFilterTemplateComponent</title>
<polygon fill="#ffffb3" stroke="#000000" points="1496.9468,-122 1229.0532,-122 1229.0532,-86 1496.9468,-86 1496.9468,-122"/>
<text text-anchor="middle" x="1363" y="-99.8" font-family="Times,serif" font-size="14.00" fill="#000000">DataTableColumnFilterTemplateComponent</text>
</g>
<!-- DataTableColumnFilterTemplateComponent&#45;&gt;DataTableModule -->
<g id="edge10" class="edge">
<title>DataTableColumnFilterTemplateComponent&#45;&gt;DataTableModule</title>
<path fill="none" stroke="#000000" d="M1363,-122.1871C1363,-137.1824 1363,-156 1363,-156 1363,-156 1699.9641,-156 1699.9641,-156"/>
<polygon fill="#000000" stroke="#000000" points="1699.9641,-159.5001 1709.9641,-156 1699.9641,-152.5001 1699.9641,-159.5001"/>
</g>
<!-- DataTableColumnTitleHeaderComponent -->
<g id="node11" class="node">
<title>DataTableColumnTitleHeaderComponent</title>
<polygon fill="#ffffb3" stroke="#000000" points="1210.5993,-122 959.4007,-122 959.4007,-86 1210.5993,-86 1210.5993,-122"/>
<text text-anchor="middle" x="1085" y="-99.8" font-family="Times,serif" font-size="14.00" fill="#000000">DataTableColumnTitleHeaderComponent</text>
</g>
<!-- DataTableColumnTitleHeaderComponent&#45;&gt;DataTableModule -->
<g id="edge11" class="edge">
<title>DataTableColumnTitleHeaderComponent&#45;&gt;DataTableModule</title>
<path fill="none" stroke="#000000" d="M1085,-122.027C1085,-138.3976 1085,-160 1085,-160 1085,-160 1700.0905,-160 1700.0905,-160"/>
<polygon fill="#000000" stroke="#000000" points="1700.0906,-163.5001 1710.0905,-160 1700.0905,-156.5001 1700.0906,-163.5001"/>
</g>
<!-- DataTableHeadComponent -->
<g id="node12" class="node">
<title>DataTableHeadComponent</title>
<polygon fill="#ffffb3" stroke="#000000" points="941.6671,-122 772.3329,-122 772.3329,-86 941.6671,-86 941.6671,-122"/>
<text text-anchor="middle" x="857" y="-99.8" font-family="Times,serif" font-size="14.00" fill="#000000">DataTableHeadComponent</text>
</g>
<!-- DataTableHeadComponent&#45;&gt;DataTableModule -->
<g id="edge12" class="edge">
<title>DataTableHeadComponent&#45;&gt;DataTableModule</title>
<path fill="none" stroke="#000000" d="M857,-122.302C857,-140.2699 857,-165 857,-165 857,-165 1699.8638,-165 1699.8638,-165"/>
<polygon fill="#000000" stroke="#000000" points="1699.8639,-168.5001 1709.8638,-165 1699.8638,-161.5001 1699.8639,-168.5001"/>
</g>
<!-- DataTableLoadingSpinnerComponent -->
<g id="node13" class="node">
<title>DataTableLoadingSpinnerComponent</title>
<polygon fill="#ffffb3" stroke="#000000" points="753.8375,-122 524.1625,-122 524.1625,-86 753.8375,-86 753.8375,-122"/>
<text text-anchor="middle" x="639" y="-99.8" font-family="Times,serif" font-size="14.00" fill="#000000">DataTableLoadingSpinnerComponent</text>
</g>
<!-- DataTableLoadingSpinnerComponent&#45;&gt;DataTableModule -->
<g id="edge13" class="edge">
<title>DataTableLoadingSpinnerComponent&#45;&gt;DataTableModule</title>
<path fill="none" stroke="#000000" d="M639,-122.1061C639,-141.3391 639,-169 639,-169 639,-169 1699.8373,-169 1699.8373,-169"/>
<polygon fill="#000000" stroke="#000000" points="1699.8373,-172.5001 1709.8373,-169 1699.8373,-165.5001 1699.8373,-172.5001"/>
</g>
<!-- ScrollPositionDirective -->
<g id="node14" class="node">
<title>ScrollPositionDirective</title>
<polygon fill="#ffffb3" stroke="#000000" points="505.9214,-122 358.0786,-122 358.0786,-86 505.9214,-86 505.9214,-122"/>
<text text-anchor="middle" x="432" y="-99.8" font-family="Times,serif" font-size="14.00" fill="#000000">ScrollPositionDirective</text>
</g>
<!-- ScrollPositionDirective&#45;&gt;DataTableModule -->
<g id="edge14" class="edge">
<title>ScrollPositionDirective&#45;&gt;DataTableModule</title>
<path fill="none" stroke="#000000" d="M432,-122.0267C432,-142.7672 432,-174 432,-174 432,-174 1699.8256,-174 1699.8256,-174"/>
<polygon fill="#000000" stroke="#000000" points="1699.8257,-177.5001 1709.8256,-174 1699.8256,-170.5001 1699.8257,-177.5001"/>
</g>
<!-- ScrollElementDirective -->
<g id="node15" class="node">
<title>ScrollElementDirective</title>
<polygon fill="#ffffb3" stroke="#000000" points="340.1755,-122 191.8245,-122 191.8245,-86 340.1755,-86 340.1755,-122"/>
<text text-anchor="middle" x="266" y="-99.8" font-family="Times,serif" font-size="14.00" fill="#000000">ScrollElementDirective</text>
</g>
<!-- ScrollElementDirective&#45;&gt;DataTableModule -->
<g id="edge15" class="edge">
<title>ScrollElementDirective&#45;&gt;DataTableModule</title>
<path fill="none" stroke="#000000" d="M266,-122.2921C266,-144.2057 266,-178 266,-178 266,-178 1700.0806,-178 1700.0806,-178"/>
<polygon fill="#000000" stroke="#000000" points="1700.0807,-181.5001 1710.0806,-178 1700.0806,-174.5001 1700.0807,-181.5001"/>
</g>
<!-- ElementWidthDirective -->
<g id="node16" class="node">
<title>ElementWidthDirective</title>
<polygon fill="#ffffb3" stroke="#000000" points="173.7324,-122 24.2676,-122 24.2676,-86 173.7324,-86 173.7324,-122"/>
<text text-anchor="middle" x="99" y="-99.8" font-family="Times,serif" font-size="14.00" fill="#000000">ElementWidthDirective</text>
</g>
<!-- ElementWidthDirective&#45;&gt;DataTableModule -->
<g id="edge16" class="edge">
<title>ElementWidthDirective&#45;&gt;DataTableModule</title>
<path fill="none" stroke="#000000" d="M99,-122.3228C99,-145.6602 99,-183 99,-183 99,-183 1700.0543,-183 1700.0543,-183"/>
<polygon fill="#000000" stroke="#000000" points="1700.0544,-186.5001 1710.0543,-183 1700.0543,-179.5001 1700.0544,-186.5001"/>
</g>
<!-- DataTableColumnComponent  -->
<g id="node18" class="node">
<title>DataTableColumnComponent </title>
<polygon fill="#fb8072" stroke="#000000" points="1955.2492,-252 1766.7508,-252 1766.7508,-216 1955.2492,-216 1955.2492,-252"/>
<text text-anchor="middle" x="1861" y="-229.8" font-family="Times,serif" font-size="14.00" fill="#000000">DataTableColumnComponent </text>
</g>
<!-- DataTableModule&#45;&gt;DataTableColumnComponent  -->
<g id="edge17" class="edge">
<title>DataTableModule&#45;&gt;DataTableColumnComponent </title>
<path fill="none" stroke="#000000" stroke-dasharray="5,2" d="M1797.3999,-187.1061C1797.3999,-187.1061 1797.3999,-205.991 1797.3999,-205.991"/>
<polygon fill="#000000" stroke="#000000" points="1793.9,-205.9909 1797.3999,-215.991 1800.9,-205.991 1793.9,-205.9909"/>
</g>
<!-- DataTableComponent  -->
<g id="node19" class="node">
<title>DataTableComponent </title>
<polygon fill="#fb8072" stroke="#000000" points="1748.6313,-252 1605.3687,-252 1605.3687,-216 1748.6313,-216 1748.6313,-252"/>
<text text-anchor="middle" x="1677" y="-229.8" font-family="Times,serif" font-size="14.00" fill="#000000">DataTableComponent </text>
</g>
<!-- DataTableModule&#45;&gt;DataTableComponent  -->
<g id="edge18" class="edge">
<title>DataTableModule&#45;&gt;DataTableComponent </title>
<path fill="none" stroke="#000000" stroke-dasharray="5,2" d="M1729.3207,-187.1061C1729.3207,-187.1061 1729.3207,-205.991 1729.3207,-205.991"/>
<polygon fill="#000000" stroke="#000000" points="1725.8207,-205.9909 1729.3207,-215.991 1732.8207,-205.991 1725.8207,-205.9909"/>
</g>
<!-- DropdownComponent -->
<g id="node20" class="node">
<title>DropdownComponent</title>
<polygon fill="#ffffb3" stroke="#000000" points="4192.7064,-122 4051.2936,-122 4051.2936,-86 4192.7064,-86 4192.7064,-122"/>
<text text-anchor="middle" x="4122" y="-99.8" font-family="Times,serif" font-size="14.00" fill="#000000">DropdownComponent</text>
</g>
<!-- DropdownModule -->
<g id="node24" class="node">
<title>DropdownModule</title>
<polygon fill="#8dd3c7" stroke="#000000" points="3912.9244,-187 3909.9244,-191 3888.9244,-191 3885.9244,-187 3793.0756,-187 3793.0756,-151 3912.9244,-151 3912.9244,-187"/>
<text text-anchor="middle" x="3853" y="-164.8" font-family="Times,serif" font-size="14.00" fill="#000000">DropdownModule</text>
</g>
<!-- DropdownComponent&#45;&gt;DropdownModule -->
<g id="edge19" class="edge">
<title>DropdownComponent&#45;&gt;DropdownModule</title>
<path fill="none" stroke="#000000" d="M4122,-122.2396C4122,-137.5706 4122,-157 4122,-157 4122,-157 3923.034,-157 3923.034,-157"/>
<polygon fill="#000000" stroke="#000000" points="3923.0341,-153.5001 3913.034,-157 3923.034,-160.5001 3923.0341,-153.5001"/>
</g>
<!-- DropdownViewComponent -->
<g id="node21" class="node">
<title>DropdownViewComponent</title>
<polygon fill="#ffffb3" stroke="#000000" points="4033.5253,-122 3862.4747,-122 3862.4747,-86 4033.5253,-86 4033.5253,-122"/>
<text text-anchor="middle" x="3948" y="-99.8" font-family="Times,serif" font-size="14.00" fill="#000000">DropdownViewComponent</text>
</g>
<!-- DropdownViewComponent&#45;&gt;DropdownModule -->
<g id="edge20" class="edge">
<title>DropdownViewComponent&#45;&gt;DropdownModule</title>
<path fill="none" stroke="#000000" d="M3887.4748,-122.1061C3887.4748,-122.1061 3887.4748,-140.991 3887.4748,-140.991"/>
<polygon fill="#000000" stroke="#000000" points="3883.9748,-140.9909 3887.4748,-150.991 3890.9748,-140.991 3883.9748,-140.9909"/>
</g>
<!-- DropdownFilterComponent -->
<g id="node22" class="node">
<title>DropdownFilterComponent</title>
<polygon fill="#ffffb3" stroke="#000000" points="3843.5364,-122 3672.4636,-122 3672.4636,-86 3843.5364,-86 3843.5364,-122"/>
<text text-anchor="middle" x="3758" y="-99.8" font-family="Times,serif" font-size="14.00" fill="#000000">DropdownFilterComponent</text>
</g>
<!-- DropdownFilterComponent&#45;&gt;DropdownModule -->
<g id="edge21" class="edge">
<title>DropdownFilterComponent&#45;&gt;DropdownModule</title>
<path fill="none" stroke="#000000" d="M3818.5281,-122.1061C3818.5281,-122.1061 3818.5281,-140.991 3818.5281,-140.991"/>
<polygon fill="#000000" stroke="#000000" points="3815.0281,-140.9909 3818.5281,-150.991 3822.0281,-140.991 3815.0281,-140.9909"/>
</g>
<!-- DropdownOptionsComponent -->
<g id="node23" class="node">
<title>DropdownOptionsComponent</title>
<polygon fill="#ffffb3" stroke="#000000" points="3653.5392,-122 3468.4608,-122 3468.4608,-86 3653.5392,-86 3653.5392,-122"/>
<text text-anchor="middle" x="3561" y="-99.8" font-family="Times,serif" font-size="14.00" fill="#000000">DropdownOptionsComponent</text>
</g>
<!-- DropdownOptionsComponent&#45;&gt;DropdownModule -->
<g id="edge22" class="edge">
<title>DropdownOptionsComponent&#45;&gt;DropdownModule</title>
<path fill="none" stroke="#000000" d="M3561,-122.3228C3561,-145.6602 3561,-183 3561,-183 3561,-183 3783.2048,-183 3783.2048,-183"/>
<polygon fill="#000000" stroke="#000000" points="3783.2049,-186.5001 3793.2048,-183 3783.2048,-179.5001 3783.2049,-186.5001"/>
</g>
<!-- DropdownComponent  -->
<g id="node25" class="node">
<title>DropdownComponent </title>
<polygon fill="#fb8072" stroke="#000000" points="3925.2065,-252 3780.7935,-252 3780.7935,-216 3925.2065,-216 3925.2065,-252"/>
<text text-anchor="middle" x="3853" y="-229.8" font-family="Times,serif" font-size="14.00" fill="#000000">DropdownComponent </text>
</g>
<!-- DropdownModule&#45;&gt;DropdownComponent  -->
<g id="edge23" class="edge">
<title>DropdownModule&#45;&gt;DropdownComponent </title>
<path fill="none" stroke="#000000" stroke-dasharray="5,2" d="M3853,-187.1061C3853,-187.1061 3853,-205.991 3853,-205.991"/>
<polygon fill="#000000" stroke="#000000" points="3849.5001,-205.9909 3853,-215.991 3856.5001,-205.991 3849.5001,-205.9909"/>
</g>
<!-- ClickOutsideDirective -->
<g id="node26" class="node">
<title>ClickOutsideDirective</title>
<polygon fill="#ffffb3" stroke="#000000" points="5504.9622,-122 5363.0378,-122 5363.0378,-86 5504.9622,-86 5504.9622,-122"/>
<text text-anchor="middle" x="5434" y="-99.8" font-family="Times,serif" font-size="14.00" fill="#000000">ClickOutsideDirective</text>
</g>
<!-- UtilityModule -->
<g id="node30" class="node">
<title>UtilityModule</title>
<polygon fill="#8dd3c7" stroke="#000000" points="5104.1095,-187 5101.1095,-191 5080.1095,-191 5077.1095,-187 5007.8905,-187 5007.8905,-151 5104.1095,-151 5104.1095,-187"/>
<text text-anchor="middle" x="5056" y="-164.8" font-family="Times,serif" font-size="14.00" fill="#000000">UtilityModule</text>
</g>
<!-- ClickOutsideDirective&#45;&gt;UtilityModule -->
<g id="edge24" class="edge">
<title>ClickOutsideDirective&#45;&gt;UtilityModule</title>
<path fill="none" stroke="#000000" d="M5434,-122.1289C5434,-142.5724 5434,-173 5434,-173 5434,-173 5114.2579,-173 5114.2579,-173"/>
<polygon fill="#000000" stroke="#000000" points="5114.2579,-169.5001 5104.2579,-173 5114.2579,-176.5001 5114.2579,-169.5001"/>
</g>
<!-- InitDirective -->
<g id="node27" class="node">
<title>InitDirective</title>
<polygon fill="#ffffb3" stroke="#000000" points="5344.5259,-122 5257.4741,-122 5257.4741,-86 5344.5259,-86 5344.5259,-122"/>
<text text-anchor="middle" x="5301" y="-99.8" font-family="Times,serif" font-size="14.00" fill="#000000">InitDirective</text>
</g>
<!-- InitDirective&#45;&gt;UtilityModule -->
<g id="edge25" class="edge">
<title>InitDirective&#45;&gt;UtilityModule</title>
<path fill="none" stroke="#000000" d="M5289.9844,-122.2667C5289.9844,-140.5552 5289.9844,-166 5289.9844,-166 5289.9844,-166 5114.198,-166 5114.198,-166"/>
<polygon fill="#000000" stroke="#000000" points="5114.198,-162.5001 5104.198,-166 5114.198,-169.5001 5114.198,-162.5001"/>
</g>
<!-- FocusDirective -->
<g id="node28" class="node">
<title>FocusDirective</title>
<polygon fill="#ffffb3" stroke="#000000" points="5238.5257,-122 5137.4743,-122 5137.4743,-86 5238.5257,-86 5238.5257,-122"/>
<text text-anchor="middle" x="5188" y="-99.8" font-family="Times,serif" font-size="14.00" fill="#000000">FocusDirective</text>
</g>
<!-- FocusDirective&#45;&gt;UtilityModule -->
<g id="edge26" class="edge">
<title>FocusDirective&#45;&gt;UtilityModule</title>
<path fill="none" stroke="#000000" d="M5148.375,-122.0091C5148.375,-138.0494 5148.375,-159 5148.375,-159 5148.375,-159 5114.0814,-159 5114.0814,-159"/>
<polygon fill="#000000" stroke="#000000" points="5114.0815,-155.5001 5104.0814,-159 5114.0814,-162.5001 5114.0815,-155.5001"/>
</g>
<!-- PixelConverterPipe -->
<g id="node29" class="node">
<title>PixelConverterPipe</title>
<polygon fill="#ffffb3" stroke="#000000" points="5118.6443,-122 4993.3557,-122 4993.3557,-86 5118.6443,-86 5118.6443,-122"/>
<text text-anchor="middle" x="5056" y="-99.8" font-family="Times,serif" font-size="14.00" fill="#000000">PixelConverterPipe</text>
</g>
<!-- PixelConverterPipe&#45;&gt;UtilityModule -->
<g id="edge27" class="edge">
<title>PixelConverterPipe&#45;&gt;UtilityModule</title>
<path fill="none" stroke="#000000" d="M5056,-122.1061C5056,-122.1061 5056,-140.991 5056,-140.991"/>
<polygon fill="#000000" stroke="#000000" points="5052.5001,-140.9909 5056,-150.991 5059.5001,-140.991 5052.5001,-140.9909"/>
</g>
<!-- ClickOutsideDirective  -->
<g id="node31" class="node">
<title>ClickOutsideDirective </title>
<polygon fill="#fb8072" stroke="#000000" points="5322.9629,-252 5177.0371,-252 5177.0371,-216 5322.9629,-216 5322.9629,-252"/>
<text text-anchor="middle" x="5250" y="-229.8" font-family="Times,serif" font-size="14.00" fill="#000000">ClickOutsideDirective </text>
</g>
<!-- UtilityModule&#45;&gt;ClickOutsideDirective  -->
<g id="edge28" class="edge">
<title>UtilityModule&#45;&gt;ClickOutsideDirective </title>
<path fill="none" stroke="#000000" stroke-dasharray="5,2" d="M5104.0987,-180C5148.6345,-180 5208.0156,-180 5208.0156,-180 5208.0156,-180 5208.0156,-205.7181 5208.0156,-205.7181"/>
<polygon fill="#000000" stroke="#000000" points="5204.5157,-205.718 5208.0156,-215.7181 5211.5157,-205.7181 5204.5157,-205.718"/>
</g>
<!-- InitDirective  -->
<g id="node32" class="node">
<title>InitDirective </title>
<polygon fill="#fb8072" stroke="#000000" points="5159.5246,-252 5068.4754,-252 5068.4754,-216 5159.5246,-216 5159.5246,-252"/>
<text text-anchor="middle" x="5114" y="-229.8" font-family="Times,serif" font-size="14.00" fill="#000000">InitDirective </text>
</g>
<!-- UtilityModule&#45;&gt;InitDirective  -->
<g id="edge29" class="edge">
<title>UtilityModule&#45;&gt;InitDirective </title>
<path fill="none" stroke="#000000" stroke-dasharray="5,2" d="M5086.2712,-187.1061C5086.2712,-187.1061 5086.2712,-205.991 5086.2712,-205.991"/>
<polygon fill="#000000" stroke="#000000" points="5082.7713,-205.9909 5086.2712,-215.991 5089.7713,-205.991 5082.7713,-205.9909"/>
</g>
<!-- FocusDirective  -->
<g id="node33" class="node">
<title>FocusDirective </title>
<polygon fill="#fb8072" stroke="#000000" points="5050.5246,-252 4945.4754,-252 4945.4754,-216 5050.5246,-216 5050.5246,-252"/>
<text text-anchor="middle" x="4998" y="-229.8" font-family="Times,serif" font-size="14.00" fill="#000000">FocusDirective </text>
</g>
<!-- UtilityModule&#45;&gt;FocusDirective  -->
<g id="edge30" class="edge">
<title>UtilityModule&#45;&gt;FocusDirective </title>
<path fill="none" stroke="#000000" stroke-dasharray="5,2" d="M5029.2288,-187.1061C5029.2288,-187.1061 5029.2288,-205.991 5029.2288,-205.991"/>
<polygon fill="#000000" stroke="#000000" points="5025.7289,-205.9909 5029.2288,-215.991 5032.7289,-205.991 5025.7289,-205.9909"/>
</g>
<!-- PixelConverterPipe  -->
<g id="node34" class="node">
<title>PixelConverterPipe </title>
<polygon fill="#fb8072" stroke="#000000" points="4927.6439,-252 4798.3561,-252 4798.3561,-216 4927.6439,-216 4927.6439,-252"/>
<text text-anchor="middle" x="4863" y="-229.8" font-family="Times,serif" font-size="14.00" fill="#000000">PixelConverterPipe </text>
</g>
<!-- UtilityModule&#45;&gt;PixelConverterPipe  -->
<g id="edge31" class="edge">
<title>UtilityModule&#45;&gt;PixelConverterPipe </title>
<path fill="none" stroke="#000000" stroke-dasharray="5,2" d="M5007.7958,-181C4950.6306,-181 4863,-181 4863,-181 4863,-181 4863,-205.7604 4863,-205.7604"/>
<polygon fill="#000000" stroke="#000000" points="4859.5001,-205.7604 4863,-215.7604 4866.5001,-205.7604 4859.5001,-205.7604"/>
</g>
<!-- DragAndDropService -->
<g id="node35" class="node">
<title>DragAndDropService</title>
<ellipse fill="#fdb462" stroke="#000000" cx="4873" cy="-104" rx="95.5298" ry="18"/>
<text text-anchor="middle" x="4873" y="-99.8" font-family="Times,serif" font-size="14.00" fill="#000000">DragAndDropService</text>
</g>
<!-- DragAndDropService&#45;&gt;UtilityModule -->
<g id="edge32" class="edge">
<title>DragAndDropService&#45;&gt;UtilityModule</title>
<path fill="none" stroke="#000000" d="M4957.1262,-112.7057C4957.1262,-129.1175 4957.1262,-163 4957.1262,-163 4957.1262,-163 4997.7217,-163 4997.7217,-163"/>
<polygon fill="#000000" stroke="#000000" points="4997.7217,-166.5001 5007.7217,-163 4997.7216,-159.5001 4997.7217,-166.5001"/>
</g>
<!-- GlobalRefService -->
<g id="node36" class="node">
<title>GlobalRefService</title>
<ellipse fill="#fdb462" stroke="#000000" cx="4679" cy="-104" rx="80.4325" ry="18"/>
<text text-anchor="middle" x="4679" y="-99.8" font-family="Times,serif" font-size="14.00" fill="#000000">GlobalRefService</text>
</g>
<!-- GlobalRefService&#45;&gt;UtilityModule -->
<g id="edge33" class="edge">
<title>GlobalRefService&#45;&gt;UtilityModule</title>
<path fill="none" stroke="#000000" d="M4679,-122.1061C4679,-141.3391 4679,-169 4679,-169 4679,-169 4997.8698,-169 4997.8698,-169"/>
<polygon fill="#000000" stroke="#000000" points="4997.8698,-172.5001 5007.8698,-169 4997.8697,-165.5001 4997.8698,-172.5001"/>
</g>
<!-- PopoverComponentLoaderFactoryService -->
<g id="node37" class="node">
<title>PopoverComponentLoaderFactoryService</title>
<ellipse fill="#fdb462" stroke="#000000" cx="4407" cy="-104" rx="174.1649" ry="18"/>
<text text-anchor="middle" x="4407" y="-99.8" font-family="Times,serif" font-size="14.00" fill="#000000">PopoverComponentLoaderFactoryService</text>
</g>
<!-- PopoverComponentLoaderFactoryService&#45;&gt;UtilityModule -->
<g id="edge34" class="edge">
<title>PopoverComponentLoaderFactoryService&#45;&gt;UtilityModule</title>
<path fill="none" stroke="#000000" d="M4407,-122.2843C4407,-143.3211 4407,-175 4407,-175 4407,-175 4997.7497,-175 4997.7497,-175"/>
<polygon fill="#000000" stroke="#000000" points="4997.7498,-178.5001 5007.7497,-175 4997.7497,-171.5001 4997.7498,-178.5001"/>
</g>
</g>
</svg>
