<?xml version="1.0" encoding="utf-8"?>
<!-- Generator: Adobe Illustrator 19.2.0, SVG Export Plug-In . SVG Version: 6.00 Build 0)  -->
<svg version="1.1" id="Capa_1" xmlns="http://www.w3.org/2000/svg" xmlns:xlink="http://www.w3.org/1999/xlink" x="0px" y="0px"
	 viewBox="0 0 512 512" style="enable-background:new 0 0 512 512;" xml:space="preserve">
<style type="text/css">
	.st0{fill:#FFB000;}
</style>
<g>
	<path class="st0" d="M62.9,243.7c37.4,0,42.6-20.5,42.6-39c0-14.7-2.1-29.5-4.2-44.2s-4.2-29-4.2-43.7c0-48.4,31.6-69,76.3-69h11.1
		v29H175c-31.1,0-41.6,16.8-41.6,45.3c0,12.1,1.6,24.7,3.7,37.4c2.1,13.2,3.7,25.8,3.7,40c0.5,33.7-14.2,50.5-37.9,56.9v1.1
		c23.7,5.8,38.4,23.7,37.9,57.4c0,14.2-1.6,27.4-3.7,40c-2.1,13.2-3.7,25.3-3.7,37.9c0,29.5,12.1,45.8,41.6,45.8h9.5v29h-11.1
		c-43.7,0-76.3-19-76.3-72.1c0-14.2,2.1-29,4.2-43.2c2.1-14.2,4.2-28.4,4.2-42.6c0-16.3-5.3-39-42.6-39V243.7z"/>
	<path class="st0" d="M444,270.5c-37.4,0-42.6,22.6-42.6,39c0,14.2,2.1,28.4,4.2,42.6c2.1,14.2,4.2,29,4.2,43.2
		c0,53.2-33.2,72.1-76.3,72.1h-11.1v-29h9c29.5-0.5,42.1-16.3,42.1-45.8c0-12.6-2.1-24.7-3.7-37.9c-2.1-12.6-4.2-25.8-4.2-40
		c0-33.7,14.7-51.6,37.9-57.4v-1.1c-23.2-6.3-37.9-23.2-37.9-56.9c0-14.2,2.1-26.9,4.2-40c1.6-12.6,3.7-25.3,3.7-37.4
		c0-28.4-11.1-44.8-41.6-45.3h-9.5v-29H333c44.8,0,76.9,20.5,76.9,69c0,14.7-2.1,29-4.2,43.7c-2.1,14.7-4.2,29.5-4.2,44.2
		c0,18.4,5.3,39,42.6,39V270.5z"/>
</g>
</svg>
