<?xml version="1.0" encoding="utf-8"?>
<!-- Generator: Adobe Illustrator 19.2.0, SVG Export Plug-In . SVG Version: 6.00 Build 0)  -->
<svg version="1.1" id="Layer_1" xmlns="http://www.w3.org/2000/svg" xmlns:xlink="http://www.w3.org/1999/xlink" x="0px" y="0px"
	 viewBox="0 0 9376 2013.7" style="enable-background:new 0 0 9376 2013.7;" xml:space="preserve">
<style type="text/css">
	.st0{fill:#FFFFFF;stroke:#231F20;stroke-miterlimit:10;}
	.st1{fill:#2563A0;stroke:#231F20;stroke-miterlimit:10;}
	.st2{fill:#104584;stroke:#231F20;stroke-miterlimit:10;}
	.st3{fill:#1D70B5;stroke:#231F20;stroke-miterlimit:10;}
	.st4{fill:#2964AA;stroke:#231F20;stroke-miterlimit:10;}
	.st5{fill:#1253B2;stroke:#231F20;stroke-miterlimit:10;}
	.st6{fill:#1B6CCC;stroke:#231F20;stroke-miterlimit:10;}
	.st7{fill:#0A55A0;stroke:#231F20;stroke-miterlimit:10;}
	.st8{fill:#1B75BF;stroke:#231F20;stroke-miterlimit:10;}
	.st9{fill:#0D5693;stroke:#231F20;stroke-miterlimit:10;}
	.st10{fill:#113F6D;stroke:#231F20;stroke-miterlimit:10;}
	.st11{fill:#0C3D6D;stroke:#231F20;stroke-miterlimit:10;}
</style>
<path class="st0" d="M869.9,123.4"/>
<polygon class="st1" points="382.7,729.7 867.7,447.2 866.4,123.4 99.1,570.5 "/>
<polyline class="st2" points="873.4,1899.6 872.1,1569.7 1357.1,1287.2 1354.9,725.9 1637.2,564.4 1640.7,1452.5 873.4,1899.6 "/>
<polygon class="st2" points="872.1,1569.7 384.9,1291 382.7,729.7 99.1,570.5 102.6,1458.6 873.4,1899.6 "/>
<polygon class="st3" points="872.8,679.6 1356.2,402 1640.1,564.4 872.8,1008.5 "/>
<polygon class="st4" points="1354.1,729.5 1920.6,401.4 2205.1,562.8 1355.3,1058.4 "/>
<polygon class="st5" points="1920.7,1621.5 1921.4,728.3 2204,563.6 2205.1,1456.1 "/>
<polygon class="st5" points="866.4,123.4 382.7,729.7 867.7,447.2 "/>
<polygon class="st6" points="382.7,729.7 243.7,1116.1 99.1,570.5 "/>
<polygon class="st3" points="384.9,1291 243.7,1116.1 102.6,1458.6 "/>
<polygon class="st6" points="866.4,123.4 556.7,511.6 99.1,570.5 "/>
<polygon class="st6" points="384.9,1291 477.9,1471.6 102.6,1458.6 "/>
<polygon class="st1" points="872.1,1569.7 477.9,1471.6 873.4,1899.6 "/>
<polygon class="st2" points="556.7,511.6 867.7,447.2 382.7,729.7 "/>
<polygon class="st5" points="382.7,729.7 243.7,1116.1 384.9,1291 "/>
<polygon class="st5" points="872.1,1569.7 1256.4,1569.7 873.4,1899.6 "/>
<polygon class="st5" points="1357.1,1287.2 1256.4,1569.7 1640.7,1452.5 "/>
<polygon class="st7" points="384.9,1291 477.9,1471.6 872.1,1569.7 "/>
<polygon class="st8" points="872.1,1569.7 1256.4,1569.7 1357.1,1287.2 "/>
<polygon class="st9" points="1357.1,1287.2 1480.6,985.3 1640.7,1452.5 "/>
<polyline class="st6" points="1480.6,985.3 1357.1,1287.2 1355.3,1058.4 "/>
<polygon class="st6" points="872.8,679.6 1190.1,689.8 1356.2,402 "/>
<polygon class="st10" points="872.8,1008.5 1190.1,689.8 1640.1,564.4 "/>
<polygon class="st1" points="1190.1,689.8 1640.1,564.4 1356.2,402 "/>
<polygon class="st9" points="1354.1,729.5 1607.2,763.8 1355.3,1058.4 "/>
<polygon class="st3" points="1920.6,401.4 1607.2,763.8 2204,563.6 "/>
<polygon class="st10" points="1355.3,1058.4 1607.2,763.8 2204,563.6 "/>
<polygon class="st11" points="2204,563.6 2037,1187.6 2205.1,1456.1 "/>
<polygon class="st2" points="1920.7,1621.5 2037,1187.6 2205.1,1456.1 "/>
<polygon class="st7" points="1921.4,728.3 2037,1187.6 2204,563.6 "/>
<g>
	<path class="st6" d="M2738.7,1423.6h-145.1c-68.3,0-121-18.1-158.1-54.4s-55.7-88.6-55.7-156.8V801.5c0-68.2,18.6-120.5,55.7-156.8
		s89.9-54.4,158.1-54.4h145.1c68.2,0,121,18.2,158.1,54.4s55.7,88.6,55.7,156.8v410.8c0,68.3-18.6,120.5-55.7,156.8
		S2806.9,1423.6,2738.7,1423.6z M2619.4,1281h92c27.6,0,47.3-5.8,59-17.5s17.5-31.3,17.5-59V809.3c0-27.7-5.8-47.3-17.5-59
		s-31.3-17.5-59-17.5h-92c-27.7,0-47.1,5.8-58.3,17.5c-11.2,11.7-16.8,31.3-16.8,59v395.3c0,27.7,5.6,47.3,16.8,59
		C2572.3,1275.2,2591.8,1281,2619.4,1281z"/>
	<path class="st6" d="M3232.4,1423.6h-110.2c-18.2,0-27.2-9.1-27.2-27.2V789.9c0-18.1,9.1-27.2,27.2-27.2h110.2
		c18.1,0,27.2,9.1,27.2,27.2v44.1h5.2c9.5-23.3,26.3-41,50.5-53.1s49.7-18.1,76.5-18.1h46.7c17.3,0,25.9,9.1,25.9,27.2v89.4
		c0,10.4-2,17.5-5.8,21.4c-3.9,3.9-10.6,5.4-20.1,4.5h-89.4c-59.6,0-89.4,33.7-89.4,101.1v390.1
		C3259.6,1414.5,3250.6,1423.6,3232.4,1423.6z"/>
	<path class="st6" d="M3684.7,1423.6h-110.2c-18.2,0-27.2-9.1-27.2-27.2V789.9c0-18.1,9.1-27.2,27.2-27.2h110.2
		c18.1,0,27.2,9.1,27.2,27.2v42.8h5.2c19-46.7,61.3-70,127-70h41.5c135.7,0,203.5,70.4,203.5,211.2v422.5c0,18.2-9.5,27.2-28.5,27.2
		h-108.9c-18.1,0-27.2-9.1-27.2-27.2V981.7c0-27.6-5.8-47.3-17.5-59c-11.7-11.7-31.3-17.5-59-17.5h-46.7
		c-59.6,0-89.4,32.8-89.4,98.5v392.7C3711.9,1414.5,3702.9,1423.6,3684.7,1423.6z"/>
	<path class="st6" d="M4457.1,1423.6H4426c-68.2,0-121-18.1-158.1-54.4s-55.7-88.6-55.7-156.8V973.9c0-68.2,18.6-120.5,55.7-156.8
		s89.9-54.4,158.1-54.4h299.4c19,0,28.5,9.1,28.5,27.2v606.5c0,18.2-9.5,27.2-28.5,27.2h-108.9c-18.2,0-27.2-9.1-27.2-27.2v-42.8
		h-5.2c-9.5,23.3-26.4,40.8-50.5,52.5S4483.9,1423.6,4457.1,1423.6z M4589.3,1182.5V919.5c0-9.5-5.2-14.3-15.5-14.3H4452
		c-27.7,0-47.1,5.8-58.3,17.5c-11.2,11.7-16.8,31.3-16.8,59v222.9c0,27.7,5.6,47.3,16.8,59s30.7,17.5,58.3,17.5h48
		C4559.5,1281,4589.3,1248.2,4589.3,1182.5z"/>
	<path class="st6" d="M5033.8,1423.6h-110.2c-18.2,0-27.2-9.1-27.2-27.2V789.9c0-18.1,9.1-27.2,27.2-27.2h110.2
		c18.1,0,27.2,9.1,27.2,27.2v42.8h5.2c10.4-20.7,27.9-37.6,52.5-50.5c24.6-13,52.9-19.4,84.9-19.4h36.3c75.2,0,129.2,27.7,162,82.9
		c29.4-55.3,79.9-82.9,151.6-82.9h37.6c66.5,0,116.9,18.2,151,54.4s51.2,88.5,51.2,156.8v422.5c0,18.2-9.1,27.2-27.2,27.2h-110.2
		c-18.2,0-27.2-9.1-27.2-27.2V981.7c0-27.6-5.6-47.3-16.8-59c-11.2-11.7-30.7-17.5-58.3-17.5h-32.4c-59.6,0-89.4,33.3-89.4,99.8
		v391.4c0,18.2-9.5,27.2-28.5,27.2h-108.9c-18.2,0-27.2-9.1-27.2-27.2V981.7c0-27.6-5.8-47.3-17.5-59c-11.7-11.7-31.3-17.5-59-17.5
		h-40.2c-59.6,0-89.4,32.8-89.4,98.5v392.7C5061.1,1414.5,5052,1423.6,5033.8,1423.6z"/>
	<path class="st6" d="M6418,1423.6h-286.4c-68.2,0-121-18.1-158.1-54.4s-55.7-88.6-55.7-156.8V973.9c0-68.2,18.6-120.5,55.7-156.8
		s89.9-54.4,158.1-54.4h102.4c68.2,0,121,18.2,158.1,54.4s55.7,88.5,55.7,156.8v164.6c0,18.2-9.1,27.2-27.2,27.2h-325.3
		c-10.4,0-15.6,4.8-15.6,14.3v28.5c0,26.8,5.8,46,17.5,57.7c11.7,11.7,31.3,17.5,59,17.5H6418c18.1,0,27.2,9.5,27.2,28.5v85.5
		c0,9.5-2,16.2-5.8,20.1C6435.4,1421.7,6428.3,1423.6,6418,1423.6z M6095.3,1055.5h176.2c9.5,0,14.3-4.8,14.3-14.2v-62.2
		c0-27.6-5.6-47.1-16.9-58.3s-30.7-16.9-58.3-16.9h-54.4c-27.7,0-47.1,5.6-58.3,16.9s-16.8,30.7-16.8,58.3v62.2
		C6081,1050.8,6085.7,1055.5,6095.3,1055.5z"/>
	<path class="st6" d="M6708.2,1423.6h-110.2c-18.2,0-27.2-9.1-27.2-27.2V789.9c0-18.1,9.1-27.2,27.2-27.2h110.2
		c18.1,0,27.2,9.1,27.2,27.2v42.8h5.2c19-46.7,61.3-70,127-70h41.5c135.7,0,203.5,70.4,203.5,211.2v422.5c0,18.2-9.5,27.2-28.5,27.2
		h-108.9c-18.1,0-27.2-9.1-27.2-27.2V981.7c0-27.6-5.8-47.3-17.5-59c-11.7-11.7-31.3-17.5-59-17.5h-46.7
		c-59.6,0-89.4,32.8-89.4,98.5v392.7C6735.5,1414.5,6726.4,1423.6,6708.2,1423.6z"/>
	<path class="st6" d="M7262.9,905.2h-51.8c-10.4,0-17.5-1.7-21.4-5.2c-3.9-3.5-5.8-10.4-5.8-20.7v-89.4c0-18.1,9.1-27.2,27.2-27.2
		h51.8c9.5,0,14.3-4.8,14.3-14.3V625.3c0-18.1,9.5-27.2,28.5-27.2h108.9c18.1,0,27.2,9.1,27.2,27.2v123.1c0,9.5,5.2,14.3,15.5,14.3
		h101.1c18.1,0,27.2,9.1,27.2,27.2v89.4c0,9.5-2,16.2-5.8,20.1c-3.9,3.9-11,5.8-21.4,5.8h-101.1c-10.4,0-15.5,4.8-15.5,14.3v286.4
		c0,26.8,6,46,18.1,57.7s32,17.5,59.6,17.5h51.8c18.1,0,27.2,9.1,27.2,27.2v89.4c0,9.5-2,16.2-5.8,20.1c-3.9,3.9-11,5.8-21.4,5.8
		h-79.1c-68.2,0-121.2-18.1-158.8-54.4c-37.6-36.3-56.4-88.1-56.4-155.5V919.5C7277.2,910,7272.4,905.2,7262.9,905.2z"/>
	<path class="st6" d="M7944.6,1423.6h-42.8c-66.5,0-116.9-18.1-151-54.4s-51.2-88.6-51.2-156.8V789.9c0-18.1,9.1-27.2,27.2-27.2
		H7837c18.1,0,27.2,9.1,27.2,27.2v414.7c0,27.7,5.8,47.3,17.5,59c11.7,11.7,30.9,17.5,57.7,17.5h48c59.6,0,89.4-32.8,89.4-98.5
		V789.9c0-18.1,9.1-27.2,27.2-27.2h108.9c19,0,28.5,9.1,28.5,27.2v606.5c0,18.2-9.5,27.2-28.5,27.2H8104c-18.2,0-27.2-9.1-27.2-27.2
		v-42.8h-5.2c-9.5,23.3-26.4,40.8-50.5,52.5S7971.4,1423.6,7944.6,1423.6z"/>
	<path class="st6" d="M8521.3,1423.6h-110.2c-18.2,0-27.2-9.1-27.2-27.2V789.9c0-18.1,9.1-27.2,27.2-27.2h110.2
		c18.1,0,27.2,9.1,27.2,27.2v42.8h5.2c10.4-20.7,27.9-37.6,52.5-50.5c24.6-13,52.9-19.4,84.9-19.4h36.3c75.2,0,129.2,27.7,162,82.9
		c29.4-55.3,79.9-82.9,151.6-82.9h37.6c66.5,0,116.9,18.2,151,54.4s51.2,88.5,51.2,156.8v422.5c0,18.2-9.1,27.2-27.2,27.2h-110.2
		c-18.2,0-27.2-9.1-27.2-27.2V981.7c0-27.6-5.6-47.3-16.8-59c-11.2-11.7-30.7-17.5-58.3-17.5h-32.4c-59.6,0-89.4,33.3-89.4,99.8
		v391.4c0,18.2-9.5,27.2-28.5,27.2h-108.9c-18.2,0-27.2-9.1-27.2-27.2V981.7c0-27.6-5.8-47.3-17.5-59c-11.7-11.7-31.3-17.5-59-17.5
		H8638c-59.6,0-89.4,32.8-89.4,98.5v392.7C8548.6,1414.5,8539.5,1423.6,8521.3,1423.6z"/>
</g>
</svg>
