<?xml version="1.0" encoding="utf-8"?>
<!-- Generator: Adobe Illustrator 19.2.0, SVG Export Plug-In . SVG Version: 6.00 Build 0)  -->
<svg version="1.1" id="Capa_1" xmlns="http://www.w3.org/2000/svg" xmlns:xlink="http://www.w3.org/1999/xlink" x="0px" y="0px"
	 viewBox="0 0 512 512" style="enable-background:new 0 0 512 512;" xml:space="preserve">
<style type="text/css">
	.st0{fill:#0696F9;}
</style>
<g>
	<path class="st0" d="M115.4,130.3H8.6V91.7h260v38.6H161.2v312.6h-45.8V130.3z"/>
	<path class="st0" d="M298.3,387.6c20.3,12.5,50,22.9,81.3,22.9c46.4,0,73.5-24.5,73.5-59.9c0-32.8-18.8-51.6-66.2-69.8
		c-57.3-20.3-92.7-50-92.7-99.5c0-54.7,45.3-95.3,113.6-95.3c35.9,0,62,8.3,77.6,17.2l-12.5,37c-11.5-6.3-34.9-16.7-66.7-16.7
		c-47.9,0-66.2,28.7-66.2,52.6c0,32.8,21.4,49,69.8,67.7c59.4,22.9,89.6,51.6,89.6,103.2c0,54.2-40.1,101.1-122.9,101.1
		c-33.9,0-70.9-9.9-89.6-22.4L298.3,387.6z"/>
</g>
</svg>
