<?xml version="1.0" encoding="UTF-8" standalone="no"?>
<!DOCTYPE svg PUBLIC "-//W3C//DTD SVG 1.1//EN"
 "http://www.w3.org/Graphics/SVG/1.1/DTD/svg11.dtd">
<!-- Generated by graphviz version 2.40.1 (20161225.0304)
 -->
<!-- Title: dependencies Pages: 1 -->
<svg width="781pt" height="284pt"
 viewBox="0.00 0.00 781.00 284.00" xmlns="http://www.w3.org/2000/svg" xmlns:xlink="http://www.w3.org/1999/xlink">
<g id="graph0" class="graph" transform="scale(1 1) rotate(0) translate(4 280)">
<title>dependencies</title>
<polygon fill="#ffffff" stroke="transparent" points="-4,4 -4,-280 777,-280 777,4 -4,4"/>
<text text-anchor="start" x="365.5091" y="-42.4" font-family="sans-serif" font-weight="bold" font-size="14.00" fill="#000000">Legend</text>
<polygon fill="#ffffb3" stroke="transparent" points="152.5,-10 152.5,-30 172.5,-30 172.5,-10 152.5,-10"/>
<text text-anchor="start" x="176.129" y="-15.4" font-family="sans-serif" font-size="14.00" fill="#000000"> &#160;Declarations</text>
<polygon fill="#8dd3c7" stroke="transparent" points="265.5,-10 265.5,-30 285.5,-30 285.5,-10 265.5,-10"/>
<text text-anchor="start" x="289.2251" y="-15.4" font-family="sans-serif" font-size="14.00" fill="#000000"> &#160;Module</text>
<polygon fill="#80b1d3" stroke="transparent" points="351.5,-10 351.5,-30 371.5,-30 371.5,-10 351.5,-10"/>
<text text-anchor="start" x="375.2812" y="-15.4" font-family="sans-serif" font-size="14.00" fill="#000000"> &#160;Bootstrap</text>
<polygon fill="#fdb462" stroke="transparent" points="448.5,-10 448.5,-30 468.5,-30 468.5,-10 448.5,-10"/>
<text text-anchor="start" x="472.1732" y="-15.4" font-family="sans-serif" font-size="14.00" fill="#000000"> &#160;Providers</text>
<polygon fill="#fb8072" stroke="transparent" points="544.5,-10 544.5,-30 564.5,-30 564.5,-10 544.5,-10"/>
<text text-anchor="start" x="568.2258" y="-15.4" font-family="sans-serif" font-size="14.00" fill="#000000"> &#160;Exports</text>
<g id="clust1" class="cluster">
<title>cluster_DropdownModule</title>
<polygon fill="none" stroke="#000000" stroke-dasharray="1,5" points="8,-70 8,-268 765,-268 765,-70 8,-70"/>
</g>
<g id="clust2" class="cluster">
<title>cluster_DropdownModule_declarations</title>
<polygon fill="none" stroke="#000000" points="16,-78 16,-130 757,-130 757,-78 16,-78"/>
</g>
<g id="clust8" class="cluster">
<title>cluster_DropdownModule_exports</title>
<polygon fill="none" stroke="#000000" points="329,-208 329,-260 489,-260 489,-208 329,-208"/>
</g>
<!-- DropdownComponent -->
<g id="node1" class="node">
<title>DropdownComponent</title>
<polygon fill="#ffffb3" stroke="#000000" points="748.7064,-122 607.2936,-122 607.2936,-86 748.7064,-86 748.7064,-122"/>
<text text-anchor="middle" x="678" y="-99.8" font-family="Times,serif" font-size="14.00" fill="#000000">DropdownComponent</text>
</g>
<!-- DropdownModule -->
<g id="node5" class="node">
<title>DropdownModule</title>
<polygon fill="#8dd3c7" stroke="#000000" points="468.9244,-187 465.9244,-191 444.9244,-191 441.9244,-187 349.0756,-187 349.0756,-151 468.9244,-151 468.9244,-187"/>
<text text-anchor="middle" x="409" y="-164.8" font-family="Times,serif" font-size="14.00" fill="#000000">DropdownModule</text>
</g>
<!-- DropdownComponent&#45;&gt;DropdownModule -->
<g id="edge1" class="edge">
<title>DropdownComponent&#45;&gt;DropdownModule</title>
<path fill="none" stroke="#000000" d="M678,-122.1061C678,-141.3391 678,-169 678,-169 678,-169 479.034,-169 479.034,-169"/>
<polygon fill="#000000" stroke="#000000" points="479.0341,-165.5001 469.034,-169 479.034,-172.5001 479.0341,-165.5001"/>
</g>
<!-- DropdownViewComponent -->
<g id="node2" class="node">
<title>DropdownViewComponent</title>
<polygon fill="#ffffb3" stroke="#000000" points="589.5253,-122 418.4747,-122 418.4747,-86 589.5253,-86 589.5253,-122"/>
<text text-anchor="middle" x="504" y="-99.8" font-family="Times,serif" font-size="14.00" fill="#000000">DropdownViewComponent</text>
</g>
<!-- DropdownViewComponent&#45;&gt;DropdownModule -->
<g id="edge2" class="edge">
<title>DropdownViewComponent&#45;&gt;DropdownModule</title>
<path fill="none" stroke="#000000" d="M443.4748,-122.1061C443.4748,-122.1061 443.4748,-140.991 443.4748,-140.991"/>
<polygon fill="#000000" stroke="#000000" points="439.9748,-140.9909 443.4748,-150.991 446.9748,-140.991 439.9748,-140.9909"/>
</g>
<!-- DropdownFilterComponent -->
<g id="node3" class="node">
<title>DropdownFilterComponent</title>
<polygon fill="#ffffb3" stroke="#000000" points="399.5364,-122 228.4636,-122 228.4636,-86 399.5364,-86 399.5364,-122"/>
<text text-anchor="middle" x="314" y="-99.8" font-family="Times,serif" font-size="14.00" fill="#000000">DropdownFilterComponent</text>
</g>
<!-- DropdownFilterComponent&#45;&gt;DropdownModule -->
<g id="edge3" class="edge">
<title>DropdownFilterComponent&#45;&gt;DropdownModule</title>
<path fill="none" stroke="#000000" d="M374.5281,-122.1061C374.5281,-122.1061 374.5281,-140.991 374.5281,-140.991"/>
<polygon fill="#000000" stroke="#000000" points="371.0281,-140.9909 374.5281,-150.991 378.0281,-140.991 371.0281,-140.9909"/>
</g>
<!-- DropdownOptionsComponent -->
<g id="node4" class="node">
<title>DropdownOptionsComponent</title>
<polygon fill="#ffffb3" stroke="#000000" points="209.5392,-122 24.4608,-122 24.4608,-86 209.5392,-86 209.5392,-122"/>
<text text-anchor="middle" x="117" y="-99.8" font-family="Times,serif" font-size="14.00" fill="#000000">DropdownOptionsComponent</text>
</g>
<!-- DropdownOptionsComponent&#45;&gt;DropdownModule -->
<g id="edge4" class="edge">
<title>DropdownOptionsComponent&#45;&gt;DropdownModule</title>
<path fill="none" stroke="#000000" d="M117,-122.1061C117,-141.3391 117,-169 117,-169 117,-169 339.2048,-169 339.2048,-169"/>
<polygon fill="#000000" stroke="#000000" points="339.2049,-172.5001 349.2048,-169 339.2048,-165.5001 339.2049,-172.5001"/>
</g>
<!-- DropdownComponent  -->
<g id="node6" class="node">
<title>DropdownComponent </title>
<polygon fill="#fb8072" stroke="#000000" points="481.2065,-252 336.7935,-252 336.7935,-216 481.2065,-216 481.2065,-252"/>
<text text-anchor="middle" x="409" y="-229.8" font-family="Times,serif" font-size="14.00" fill="#000000">DropdownComponent </text>
</g>
<!-- DropdownModule&#45;&gt;DropdownComponent  -->
<g id="edge5" class="edge">
<title>DropdownModule&#45;&gt;DropdownComponent </title>
<path fill="none" stroke="#000000" stroke-dasharray="5,2" d="M409,-187.1061C409,-187.1061 409,-205.991 409,-205.991"/>
<polygon fill="#000000" stroke="#000000" points="405.5001,-205.9909 409,-215.991 412.5001,-205.991 405.5001,-205.9909"/>
</g>
</g>
</svg>
