<?xml version="1.0" encoding="iso-8859-1"?>
<!-- Generator: Adobe Illustrator 19.0.0, SVG Export Plug-In . SVG Version: 6.00 Build 0)  -->
<svg version="1.1" id="Capa_1" xmlns="http://www.w3.org/2000/svg" xmlns:xlink="http://www.w3.org/1999/xlink" x="0px" y="0px"
	 viewBox="0 0 245.019 245.019" style="enable-background:new 0 0 245.019 245.019;" xml:space="preserve">
<g>
	<g>
		<g>
			<g>
				<path d="M39.597,122.521l84.224-95.22c6.229-6.229,6.229-16.368,0-22.597
					c-6.229-6.229-16.368-6.229-22.597,0L7.179,110.984c-3.178,3.178-4.672,7.342-4.64,11.505c-0.032,4.163,1.462,8.359,4.64,11.537
					l94.044,106.344c6.229,6.198,16.368,6.198,22.597,0c6.229-6.198,6.229-16.4,0-22.597L39.597,122.521z"/>
				<path d="M153.569,122.521l84.16-95.22c6.325-6.261,6.325-16.4,0.064-22.629
					c-6.198-6.229-16.4-6.229-22.597,0l-94.044,106.312c-3.178,3.178-4.704,7.342-4.64,11.505c-0.032,4.163,1.462,8.359,4.64,11.537
					l94.013,106.344c6.261,6.198,16.432,6.198,22.597,0c6.261-6.198,6.261-16.4,0-22.597L153.569,122.521z"/>
			</g>
		</g>
	</g>
</g>
</svg>
