<?xml version="1.0" encoding="UTF-8"?>
<svg enable-background="new 0 0 40 40" version="1.1" viewBox="0 0 40 40" xml:space="preserve" xmlns="http://www.w3.org/2000/svg" width="24" height="24">
<path class="st0" d="m20 30c-7.4 0-13.3-3-13.3-6.7v5c0 3.7 6 6.7 13.3 6.7s13.3-3 13.3-6.7v-5c0 3.7-5.9 6.7-13.3 6.7zm-5.6-8v-1c-4.5-1.1-7.7-3.4-7.7-6v5c0 3.7 6 6.7 13.3 6.7 5.9 0 11-1.9 12.7-4.6h-18.3zm-7.7-10.3c0 2.7 3.2 5 7.7 6v-12.1c-4.6 1.1-7.7 3.4-7.7 6.1zm27-3.8v-4.6h-16.1v4.6h1.1v1.1h-1.1v4.6h1.1v1.1h-1.1v4.6h16.1v-4.6h-1.1v-1.1h1.1v-4.5h-1.1v-1.2h1.1zm-14.9-2.3h2.3v1.1h-2.3v-1.1zm0 5.8h2.3v1.1h-2.3v-1.1zm2.3 6.8h-2.3v-1.1h2.3v1.1zm10.3-3.4h-11.5v-1.1h11.5v1.1zm0-5.7h-11.5v-1.2h11.5v1.2z"/>
</svg>
