<?xml version="1.0" encoding="utf-8"?>
<!-- Generator: Adobe Illustrator 19.2.0, SVG Export Plug-In . SVG Version: 6.00 Build 0)  -->
<svg version="1.1" id="Layer_1" xmlns="http://www.w3.org/2000/svg" xmlns:xlink="http://www.w3.org/1999/xlink" x="0px" y="0px"
	 viewBox="0 0 9360 1968" style="enable-background:new 0 0 9360 1968;" xml:space="preserve">
<style type="text/css">
	.st0{fill:#CECECE;stroke:#231F20;stroke-miterlimit:10;}
	.st1{fill:#969696;stroke:#231F20;stroke-miterlimit:10;}
	.st2{fill:#D1D1D1;stroke:#231F20;stroke-miterlimit:10;}
	.st3{fill:#930C0C;stroke:#231F20;stroke-miterlimit:10;}
	.st4{fill:#CE3838;stroke:#231F20;stroke-miterlimit:10;}
	.st5{fill:#F2F2F2;stroke:#231F20;stroke-miterlimit:10;}
	.st6{fill:#A3A3A3;stroke:#231F20;stroke-miterlimit:10;}
	.st7{fill:#B21F1F;stroke:#231F20;stroke-miterlimit:10;}
	.st8{fill:#750B0B;stroke:#231F20;stroke-miterlimit:10;}
	.st9{fill:#6D0B0B;stroke:#231F20;stroke-miterlimit:10;}
	.st10{fill:#696969;stroke:#231F20;stroke-miterlimit:10;}
</style>
<polygon class="st0" points="357.9,702.6 842.9,420.1 841.6,96.4 74.2,543.4 "/>
<polyline class="st1" points="848.6,1872.5 847.3,1542.7 1332.3,1260.1 1330.1,698.8 1612.4,537.3 1615.9,1425.4 848.6,1872.5 "/>
<polygon class="st2" points="847.3,1542.7 360.1,1263.9 357.9,702.6 74.2,543.4 77.8,1431.5 848.6,1872.5 "/>
<polygon class="st3" points="847.9,652.5 1331.4,374.9 1615.3,537.3 847.9,981.4 "/>
<polygon class="st4" points="1329.3,702.4 1895.8,374.3 2180.3,535.7 1330.5,1031.3 "/>
<polygon class="st3" points="1895.9,1594.4 1896.6,701.2 2179.2,536.5 2180.3,1429 "/>
<polygon class="st2" points="841.6,96.4 357.9,702.6 842.9,420.1 "/>
<polygon class="st5" points="357.9,702.6 218.9,1089 74.2,543.4 "/>
<polygon class="st1" points="360.1,1263.9 218.9,1089 77.8,1431.5 "/>
<polygon class="st5" points="360.1,1263.9 453.1,1444.5 77.8,1431.5 "/>
<polygon class="st1" points="531.9,484.5 842.9,420.1 357.9,702.6 "/>
<polygon class="st6" points="357.9,702.6 218.9,1089 360.1,1263.9 "/>
<polygon class="st5" points="1332.3,1260.1 1231.6,1542.7 1615.9,1425.4 "/>
<polygon class="st2" points="360.1,1263.9 453.1,1444.5 847.3,1542.7 "/>
<polygon class="st5" points="847.3,1542.7 1231.6,1542.7 1332.3,1260.1 "/>
<polygon class="st2" points="1332.3,1260.1 1455.8,958.2 1615.9,1425.4 "/>
<polyline class="st5" points="1455.8,958.2 1332.3,1260.1 1330.5,1031.3 "/>
<polygon class="st7" points="847.9,652.5 1165.3,662.7 1331.4,374.9 "/>
<polygon class="st8" points="847.9,981.4 1165.3,662.7 1615.3,537.3 "/>
<polygon class="st4" points="1165.3,662.7 1615.3,537.3 1331.4,374.9 "/>
<polygon class="st3" points="1329.3,702.4 1582.4,736.7 1330.5,1031.3 "/>
<polygon class="st7" points="1895.8,374.3 1582.4,736.7 2179.2,536.5 "/>
<polygon class="st8" points="1330.5,1031.3 1582.4,736.7 2179.2,536.5 "/>
<polygon class="st8" points="2179.2,536.5 2012.2,1160.5 2180.3,1429 "/>
<polygon class="st9" points="1895.9,1594.4 2012.2,1160.5 2180.3,1429 "/>
<polygon class="st4" points="1896.6,701.2 2012.2,1160.5 2179.2,536.5 "/>
<path class="st10" d="M2713.9,1396.5h-145.1c-68.3,0-121-18.1-158.1-54.4s-55.7-88.6-55.7-156.8V774.4c0-68.2,18.6-120.5,55.7-156.8
	s89.9-54.4,158.1-54.4h145.1c68.2,0,121,18.2,158.1,54.4s55.7,88.6,55.7,156.8v410.8c0,68.3-18.6,120.5-55.7,156.8
	S2782.1,1396.5,2713.9,1396.5z M2594.6,1254h92c27.6,0,47.3-5.8,59-17.5s17.5-31.3,17.5-59V782.2c0-27.7-5.8-47.3-17.5-59
	s-31.3-17.5-59-17.5h-92c-27.7,0-47.1,5.8-58.3,17.5c-11.2,11.7-16.8,31.3-16.8,59v395.3c0,27.7,5.6,47.3,16.8,59
	C2547.5,1248.1,2567,1254,2594.6,1254z"/>
<path class="st10" d="M3207.6,1396.5h-110.2c-18.2,0-27.2-9.1-27.2-27.2V762.8c0-18.1,9.1-27.2,27.2-27.2h110.2
	c18.1,0,27.2,9.1,27.2,27.2v44.1h5.2c9.5-23.3,26.3-41,50.5-53.1s49.7-18.1,76.5-18.1h46.7c17.3,0,25.9,9.1,25.9,27.2v89.4
	c0,10.4-2,17.5-5.8,21.4c-3.9,3.9-10.6,5.4-20.1,4.5h-89.4c-59.6,0-89.4,33.7-89.4,101.1v390.1
	C3234.8,1387.5,3225.8,1396.5,3207.6,1396.5z"/>
<path class="st10" d="M3659.9,1396.5h-110.2c-18.2,0-27.2-9.1-27.2-27.2V762.8c0-18.1,9.1-27.2,27.2-27.2h110.2
	c18.1,0,27.2,9.1,27.2,27.2v42.8h5.2c19-46.7,61.3-70,127-70h41.5c135.7,0,203.5,70.4,203.5,211.2v422.5c0,18.2-9.5,27.2-28.5,27.2
	h-108.9c-18.1,0-27.2-9.1-27.2-27.2V954.6c0-27.6-5.8-47.3-17.5-59c-11.7-11.7-31.3-17.5-59-17.5h-46.7c-59.6,0-89.4,32.8-89.4,98.5
	v392.7C3687.1,1387.5,3678.1,1396.5,3659.9,1396.5z"/>
<path class="st10" d="M4432.3,1396.5h-31.1c-68.2,0-121-18.1-158.1-54.4s-55.7-88.6-55.7-156.8V946.8c0-68.2,18.6-120.5,55.7-156.8
	s89.9-54.4,158.1-54.4h299.4c19,0,28.5,9.1,28.5,27.2v606.5c0,18.2-9.5,27.2-28.5,27.2h-108.9c-18.2,0-27.2-9.1-27.2-27.2v-42.8
	h-5.2c-9.5,23.3-26.4,40.8-50.5,52.5S4459.1,1396.5,4432.3,1396.5z M4564.5,1155.5V892.4c0-9.5-5.2-14.3-15.5-14.3h-121.8
	c-27.7,0-47.1,5.8-58.3,17.5c-11.2,11.7-16.8,31.3-16.8,59v222.9c0,27.7,5.6,47.3,16.8,59s30.7,17.5,58.3,17.5h48
	C4534.7,1254,4564.5,1221.1,4564.5,1155.5z"/>
<path class="st7" d="M5009,1396.5h-110.2c-18.2,0-27.2-9.1-27.2-27.2V762.8c0-18.1,9.1-27.2,27.2-27.2H5009
	c18.1,0,27.2,9.1,27.2,27.2v42.8h5.2c10.4-20.7,27.9-37.6,52.5-50.5c24.6-13,52.9-19.4,84.9-19.4h36.3c75.2,0,129.2,27.7,162,82.9
	c29.4-55.3,79.9-82.9,151.6-82.9h37.6c66.5,0,116.9,18.2,151,54.4s51.2,88.5,51.2,156.8v422.5c0,18.2-9.1,27.2-27.2,27.2h-110.2
	c-18.2,0-27.2-9.1-27.2-27.2V954.6c0-27.6-5.6-47.3-16.8-59c-11.2-11.7-30.7-17.5-58.3-17.5h-32.4c-59.6,0-89.4,33.3-89.4,99.8
	v391.4c0,18.2-9.5,27.2-28.5,27.2h-108.9c-18.2,0-27.2-9.1-27.2-27.2V954.6c0-27.6-5.8-47.3-17.5-59c-11.7-11.7-31.3-17.5-59-17.5
	h-40.2c-59.6,0-89.4,32.8-89.4,98.5v392.7C5036.3,1387.5,5027.2,1396.5,5009,1396.5z"/>
<path class="st7" d="M6393.2,1396.5h-286.4c-68.2,0-121-18.1-158.1-54.4s-55.7-88.6-55.7-156.8V946.8c0-68.2,18.6-120.5,55.7-156.8
	s89.9-54.4,158.1-54.4h102.4c68.2,0,121,18.2,158.1,54.4s55.7,88.5,55.7,156.8v164.6c0,18.2-9.1,27.2-27.2,27.2h-325.3
	c-10.4,0-15.6,4.8-15.6,14.3v28.5c0,26.8,5.8,46,17.5,57.7c11.7,11.7,31.3,17.5,59,17.5h261.8c18.1,0,27.2,9.5,27.2,28.5v85.5
	c0,9.5-2,16.2-5.8,20.1C6410.6,1394.6,6403.5,1396.5,6393.2,1396.5z M6070.5,1028.5h176.2c9.5,0,14.3-4.7,14.3-14.2V952
	c0-27.6-5.6-47.1-16.9-58.3s-30.7-16.9-58.3-16.9h-54.4c-27.7,0-47.1,5.6-58.3,16.9s-16.8,30.7-16.8,58.3v62.2
	C6056.2,1023.7,6060.9,1028.5,6070.5,1028.5z"/>
<path class="st7" d="M6683.4,1396.5h-110.2c-18.2,0-27.2-9.1-27.2-27.2V762.8c0-18.1,9.1-27.2,27.2-27.2h110.2
	c18.1,0,27.2,9.1,27.2,27.2v42.8h5.2c19-46.7,61.3-70,127-70h41.5c135.7,0,203.5,70.4,203.5,211.2v422.5c0,18.2-9.5,27.2-28.5,27.2
	h-108.9c-18.1,0-27.2-9.1-27.2-27.2V954.6c0-27.6-5.8-47.3-17.5-59c-11.7-11.7-31.3-17.5-59-17.5h-46.7c-59.6,0-89.4,32.8-89.4,98.5
	v392.7C6710.7,1387.5,6701.6,1396.5,6683.4,1396.5z"/>
<path class="st7" d="M7238.1,878.1h-51.8c-10.4,0-17.5-1.7-21.4-5.2c-3.9-3.5-5.8-10.4-5.8-20.7v-89.4c0-18.1,9.1-27.2,27.2-27.2
	h51.8c9.5,0,14.3-4.8,14.3-14.3V598.2c0-18.1,9.5-27.2,28.5-27.2h108.9c18.1,0,27.2,9.1,27.2,27.2v123.1c0,9.5,5.2,14.3,15.5,14.3
	h101.1c18.1,0,27.2,9.1,27.2,27.2v89.4c0,9.5-2,16.2-5.8,20.1c-3.9,3.9-11,5.8-21.4,5.8h-101.1c-10.4,0-15.5,4.8-15.5,14.3v286.4
	c0,26.8,6,46,18.1,57.7s32,17.5,59.6,17.5h51.8c18.1,0,27.2,9.1,27.2,27.2v89.4c0,9.5-2,16.2-5.8,20.1c-3.9,3.9-11,5.8-21.4,5.8
	h-79.1c-68.2,0-121.2-18.1-158.8-54.4c-37.6-36.3-56.4-88.1-56.4-155.5V892.4C7252.4,882.9,7247.6,878.1,7238.1,878.1z"/>
<path class="st7" d="M7919.8,1396.5H7877c-66.5,0-116.9-18.1-151-54.4s-51.2-88.6-51.2-156.8V762.8c0-18.1,9.1-27.2,27.2-27.2h110.2
	c18.1,0,27.2,9.1,27.2,27.2v414.7c0,27.7,5.8,47.3,17.5,59c11.7,11.7,30.9,17.5,57.7,17.5h48c59.6,0,89.4-32.8,89.4-98.5V762.8
	c0-18.1,9.1-27.2,27.2-27.2h108.9c19,0,28.5,9.1,28.5,27.2v606.5c0,18.2-9.5,27.2-28.5,27.2h-108.9c-18.2,0-27.2-9.1-27.2-27.2
	v-42.8h-5.2c-9.5,23.3-26.4,40.8-50.5,52.5S7946.6,1396.5,7919.8,1396.5z"/>
<path class="st7" d="M8496.5,1396.5h-110.2c-18.2,0-27.2-9.1-27.2-27.2V762.8c0-18.1,9.1-27.2,27.2-27.2h110.2
	c18.1,0,27.2,9.1,27.2,27.2v42.8h5.2c10.4-20.7,27.9-37.6,52.5-50.5c24.6-13,52.9-19.4,84.9-19.4h36.3c75.2,0,129.2,27.7,162,82.9
	c29.4-55.3,79.9-82.9,151.6-82.9h37.6c66.5,0,116.9,18.2,151,54.4s51.2,88.5,51.2,156.8v422.5c0,18.2-9.1,27.2-27.2,27.2h-110.2
	c-18.2,0-27.2-9.1-27.2-27.2V954.6c0-27.6-5.6-47.3-16.8-59c-11.2-11.7-30.7-17.5-58.3-17.5h-32.4c-59.6,0-89.4,33.3-89.4,99.8
	v391.4c0,18.2-9.5,27.2-28.5,27.2H8757c-18.2,0-27.2-9.1-27.2-27.2V954.6c0-27.6-5.8-47.3-17.5-59c-11.7-11.7-31.3-17.5-59-17.5
	h-40.2c-59.6,0-89.4,32.8-89.4,98.5v392.7C8523.7,1387.5,8514.7,1396.5,8496.5,1396.5z"/>
<polygon class="st5" points="842.2,96.4 532.5,484.5 74.9,543.4 "/>
<polygon class="st6" points="847.3,1542.7 453.1,1444.5 848.6,1872.5 "/>
<polygon class="st2" points="847.3,1542.7 1231.6,1542.7 848.6,1872.5 "/>
</svg>
